<svg id="Capa_1" enable-background="new 0 0 512 512" height="512" viewBox="0 0 512 512" width="512" xmlns="http://www.w3.org/2000/svg"><g><path d="m512 256c0 14.59-1.22 28.9-3.57 42.82-4.04 24.01-11.43 46.88-21.66 68.12v.01l-28.31 35.86c-13.33 16.89-28.91 31.73-46.23 44.15-17.31 12.42-36.37 22.42-56.65 29.63-63.18 22.46-133.03 16.07-191.07-17.5l-130.45-75.44c-14.87-25.78-25.36-54.39-30.49-84.83-2.35-13.92-3.57-28.23-3.57-42.82 0-46.22 12.25-89.57 33.68-127 44.12-77.07 127.16-129 222.32-129s178.2 51.93 222.32 129c21.43 37.43 33.68 80.78 33.68 127z" fill="#00beff"/><path d="m512 256c0 39.75-9.06 77.38-25.23 110.94l-28.31 35.87c-13.33 16.89-28.91 31.73-46.23 44.15-17.31 12.42-36.37 22.42-56.65 29.63-63.18 22.46-133.03 16.07-191.07-17.5l-130.45-75.44c-21.67-37.57-34.06-81.16-34.06-127.65 0-46.22 12.25-89.57 33.68-127 44.12 77.07 127.16 129 222.32 129 2.57 0 5.14-.04 7.69-.12 6.92-.2 13.78-.68 20.56-1.43 6.6-.72 13.13-1.69 19.57-2.91 74.71-14.12 137.96-60.71 174.5-124.54 21.43 37.43 33.68 80.78 33.68 127z" fill="#0af"/><g><g><path d="m256 413.45v98.55c-7.82 0-15.55-.35-23.19-1.03 0 0-16.35-146.7-20.79-168.93-4.45-22.23-24.32-54.35-24.32-54.35 1.15-1.15 3.04-1.56 4.66-.36 38.6 28.55 63.64 74.41 63.64 126.12z" fill="#4b8204"/><path d="m232.81 406.03v104.94c-7.76-.7-15.42-1.75-22.96-3.12v-120.83c0-34.28-8.22-66.63-22.79-95.21-.79-1.55-.36-3.11.64-4.12 27.9 30.43 45.11 72.23 45.11 118.34z" fill="#519305"/></g><g><path d="m486.77 331.31v35.63c-6.59 13.69-14.36 26.7-23.19 38.89-.22-1.86-14.76-125.43-21.18-151.1-6.46-25.86-23.93-49.18-23.93-49.18 1.15-1.15 3.04-1.56 4.65-.37 38.61 28.56 63.65 74.42 63.65 126.13z" fill="#4b8204"/><path d="m463.58 323.88v81.97c-7.01 9.7-14.69 18.88-22.96 27.49v-128.47c0-34.27-8.22-66.62-22.79-95.2-.79-1.55-.36-3.11.64-4.12 27.9 30.43 45.11 72.22 45.11 118.33z" fill="#519305"/></g><g><path d="m185.83 309.87-12.23 23.23c-7.5 14.26-13.23 29.39-17.04 45.04-1.85 7.61-3.24 15.32-4.17 23.08s-1.4 15.58-1.4 23.41v33.09l-10.27 26.9c-7.98-4.03-15.71-8.46-23.18-13.28v-35.71c0-51.71 25.03-97.58 63.64-126.13 1.62-1.19 3.51-.78 4.65.37z" fill="#4b8204"/><path d="m186.48 313.99c-14.57 28.58-22.79 60.93-22.79 95.2v85.65c-7.85-3.04-15.52-6.45-22.97-10.22v-56.42c0-46.11 17.22-87.9 45.11-118.33 1 1 1.44 2.56.65 4.12z" fill="#519305"/></g><g><path d="m209.85 467.73v40.12c-7.86-1.43-15.6-3.23-23.19-5.36l-11.42-65.87-.41-2.05c-5.63-28.68-15.13-56.46-28.25-82.58l-5.03-10.02c1.14-1.15 3.04-1.56 4.65-.37 38.61 28.55 63.65 74.42 63.65 126.13z" fill="#6fc200"/><path d="m186.66 460.3v42.19c-7.81-2.19-15.47-4.75-22.97-7.65v-53.55c0-34.27-8.21-66.62-22.78-95.2-.79-1.56-.36-3.12.64-4.12 27.9 30.43 45.11 72.22 45.11 118.33z" fill="#b1d511"/></g><g><path d="m117.54 359.25v112.09c-8.06-5.19-15.8-10.81-23.19-16.84l-11.27-59.7v-33.13c0-9.35-.51-18.67-1.53-27.95-1.01-9.28-2.54-18.5-4.57-27.62-4.54-20.42-11.56-40.21-20.91-58.93l-6.83-13.67c1.15-1.15 3.04-1.56 4.65-.37 38.61 28.55 63.65 74.42 63.65 126.12z" fill="#6fc200"/><path d="m94.35 351.83v102.67c-8.08-6.58-15.75-13.66-22.97-21.17v-100.51c0-34.27-8.21-66.63-22.78-95.2-.79-1.56-.36-3.12.64-4.12 27.9 30.43 45.11 72.22 45.11 118.33z" fill="#b1d511"/></g><g><path d="m394.46 404.31v67.04c-7.47 4.82-15.2 9.25-23.18 13.28 0 0-10.52-104.19-17.8-139.76-7.27-35.57-27.31-66.32-27.31-66.32 1.14-1.15 3.03-1.56 4.65-.37 38.61 28.55 63.64 74.42 63.64 126.13z" fill="#b1d511"/><path d="m371.28 396.88v87.75c-7.45 3.77-15.11 7.18-22.97 10.21v-116.97c0-34.27-8.22-66.63-22.79-95.2-.79-1.56-.35-3.12.65-4.12 27.89 30.43 45.11 72.22 45.11 118.33z" fill="#6fc200"/></g><g><path d="m93.53 309.87-3.29 5.31c-8.25 13.29-15.05 27.42-20.27 42.17-3.43 9.67-6.16 19.55-8.19 29.58s-3.36 20.2-3.96 30.44l-.04.63c-2.81-3.44-5.54-6.96-8.18-10.55-5.6-7.62-10.8-15.57-15.54-23.8 10.5-29.9 29.81-55.66 54.82-74.15 1.61-1.19 3.5-.78 4.65.37z" fill="#b1d511"/><path d="m94.17 313.99c-14.57 28.58-22.79 60.93-22.79 95.2v24.14c-7.81-8.13-15.09-16.77-21.78-25.88 4.31-37.83 20.28-71.79 43.93-97.58 1 1 1.43 2.56.64 4.12z" fill="#6fc200"/></g><g><path d="m370.45 359.25s-18.18 26.44-26.67 56.75c-8.49 30.32-18.44 86.49-18.44 86.49-7.59 2.13-15.33 3.93-23.19 5.35v-22.83c0-51.71 25.04-97.57 63.65-126.12 1.61-1.2 3.51-.78 4.65.36z" fill="#4b8204"/><path d="m371.09 363.38c-14.57 28.57-22.78 60.92-22.78 95.2v36.26c-7.49 2.9-15.15 5.46-22.97 7.65v-24.9c0-46.11 17.21-87.9 45.11-118.34 1 1.01 1.43 2.57.64 4.13z" fill="#519305"/></g><g><path d="m324.3 180.77s-26.6 36.38-33.87 89.73c-7.28 53.35-11.24 240.46-11.24 240.46-7.63.69-15.37 1.04-23.19 1.04v-205.48c0-16.98 2.7-33.33 7.69-48.64 10.22-31.32 30.02-58.3 55.95-77.48 1.62-1.19 3.51-.78 4.66.37z" fill="#b1d511"/><path d="m324.94 184.89c-10.75 21.07-18.04 44.2-21.12 68.65-1.11 8.7-1.67 17.56-1.67 26.55v227.75c-7.54 1.38-15.2 2.43-22.96 3.12v-211.86c0-14.74 1.76-29.03 5.06-42.65 7.03-29.01 21.06-54.97 40.05-75.68 1 1 1.43 2.56.64 4.12z" fill="#6fc200"/></g><g><path d="m462.76 332.39s-20.76 30.26-29.65 60.58c-8.9 30.31-15.46 61.55-15.46 61.55-7.4 6.03-15.14 11.65-23.19 16.83v-13.2c0-51.71 25.04-97.57 63.65-126.12 1.61-1.2 3.5-.78 4.65.36z" fill="#b1d511"/><path d="m463.4 336.52c-14.57 28.57-22.78 60.93-22.78 95.2v1.63c-7.22 7.51-14.89 14.58-22.97 21.17v-3.79c0-46.11 17.21-87.9 45.11-118.34 1 1.01 1.43 2.57.64 4.13z" fill="#6fc200"/></g></g><g><path d="m187.588 205.552c.001-.098.007-.193.007-.291 0-17.821-14.447-32.268-32.268-32.268-4.234 0-8.273.824-11.977 2.306-7.156-12.819-20.847-21.493-36.571-21.493-20.419 0-37.414 14.623-41.108 33.966-1.101-.158-2.226-.244-3.37-.244-11.102 0-20.403 7.685-22.889 18.024z" fill="#fff"/><path d="m156.104 205.552c0-.056.004-.111.004-.167 0-10.248-8.307-18.555-18.555-18.555-2.435 0-4.757.474-6.887 1.326-4.115-7.371-11.987-12.359-21.029-12.359-11.741 0-21.514 8.409-23.638 19.531-.633-.091-1.28-.14-1.938-.14-6.384 0-11.732 4.419-13.162 10.364z" fill="#dfebff"/></g><g><path d="m345.733 183.561c-.001-.088-.007-.175-.007-.263 0-16.123 13.07-29.194 29.194-29.194 3.83 0 7.485.745 10.836 2.086 6.474-11.598 18.861-19.445 33.086-19.445 18.473 0 33.849 13.229 37.191 30.729.996-.143 2.013-.221 3.049-.221 10.044 0 18.459 6.953 20.708 16.307h-134.057z" fill="#fff"/><path d="m374.217 183.561c0-.051-.004-.101-.004-.151 0-9.271 7.516-16.787 16.787-16.787 2.203 0 4.304.428 6.231 1.2 3.723-6.669 10.845-11.181 19.025-11.181 10.622 0 19.464 7.607 21.385 17.67.573-.082 1.158-.127 1.753-.127 5.775 0 10.614 3.998 11.908 9.377h-77.085z" fill="#dfebff"/></g><g><path d="m166.271 94.983c-.001-.137-.01-.271-.01-.408 0-25.012 20.277-45.289 45.289-45.289 5.942 0 11.611 1.156 16.811 3.237 10.043-17.992 29.259-30.165 51.327-30.165 28.658 0 52.511 20.523 57.695 47.672 1.545-.222 3.124-.342 4.73-.342 15.581 0 28.636 10.786 32.125 25.297h-207.967z" fill="#fff"/><path d="m210.459 94.983c0-.079-.006-.156-.006-.235 0-14.383 11.66-26.042 26.042-26.042 3.417 0 6.677.665 9.667 1.861 5.775-10.346 16.825-17.346 29.514-17.346 16.479 0 30.195 11.802 33.176 27.412.889-.127 1.796-.197 2.72-.197 8.96 0 16.466 6.202 18.473 14.546h-119.586z" fill="#dfebff"/></g></g></svg>