<svg height="512pt" viewBox="0 0 512 512" width="512pt" xmlns="http://www.w3.org/2000/svg"><path d="m512 256c0 48.847656-13.6875 94.511719-37.429688 133.351562-8.996093 14.699219-19.421874 28.429688-31.105468 40.980469-4.796875 5.148438-9.789063 10.101563-14.992188 14.835938-12.800781 11.703125-26.804687 22.101562-41.796875 31.011719-7.859375 4.671874-15.976562 8.933593-24.347656 12.757812-.699219.324219-1.410156.648438-2.121094.964844-13.226562 5.902344-27.042969 10.707031-41.335937 14.3125-2.171875.554687-4.355469 1.078125-6.550782 1.566406-4.160156.929688-8.359374 1.765625-12.601562 2.488281-12.507812 2.164063-25.339844 3.40625-38.421875 3.679688-1.710937.03125-3.4375.050781-5.171875.050781h-.125c-8.078125 0-16.058594-.375-23.949219-1.109375-19.832031-1.835937-39.007812-5.945313-57.269531-12.035156-1.035156-.355469-2.070312-.710938-3.105469-1.066407-10.4375-3.636718-20.5625-7.929687-30.332031-12.832031-2.007812-1.011719-4.003906-2.046875-5.988281-3.113281-13.875-7.417969-26.980469-16.089844-39.183594-25.859375-1.523437-1.222656-3.03125-2.457031-4.523437-3.722656-2.269532-1.890625-4.492188-3.824219-6.6875-5.796875-15.359376-13.8125-29.046876-29.457032-40.710938-46.582032-27.929688-41.003906-44.25-90.539062-44.25-143.882812 0-63.238281 22.933594-121.136719 60.9375-165.792969 2.082031-2.457031 4.210938-4.859375 6.386719-7.222656 46.789062-51.011719 113.996093-82.984375 188.675781-82.984375 71.941406 0 136.953125 29.675781 183.464844 77.457031 5.628906 5.789063 11 11.851563 16.078125 18.160157 35.320312 43.875 56.457031 99.675781 56.457031 160.382812zm0 0" fill="#633b5a"/><path d="m123.003906 436.53125c88.859375-181.441406-6.929687-377.773438-6.929687-377.773438 113.925781 62.921876 82.652343 331.363282 102.035156 391.214844" fill="#9db750"/><g fill="#83a02f"><path d="m261.296875 511.949219c-1.710937.03125-3.4375.050781-5.171875.050781h-.125c-29.550781 0-57.917969-5.003906-84.324219-14.210938 105.453125-168.960937 34.292969-371.324218 33.65625-373.152343 99.894531 70.894531 51.535157 308.265625 55.964844 387.3125zm0 0"/><path d="m386.675781 476.179688c-8.515625 5.070312-17.355469 9.65625-26.46875 13.722656-15.234375 6.800781-31.253906 12.140625-47.886719 15.878906-5.882812-49.828125 60.8125-126.234375 24.386719-159.054688-27.09375-24.40625-81.5-5.976562-82.535156-5.628906 22.988281-38.589844 92.996094-41.285156 134.78125-16.875 40.667969 23.75-1.171875 91.363282-2.277344 151.957032zm0 0"/><path d="m174.78125 498.855469c-1.035156-.355469-2.070312-.710938-3.105469-1.066407-10.4375-3.636718-20.5625-7.929687-30.332031-12.832031-16.101562-8.074219-31.230469-17.816406-45.171875-28.972656 47.050781-148.125 6.195313-293.167969-35.234375-365.777344-9.101562-15.945312-18.222656-28.402343-26.457031-36.636719 11.902343 8.863282 22.832031 18.726563 32.84375 29.414063 109.503906 116.789063 111.320312 332.339844 107.457031 415.871094zm0 0"/></g><path d="m455.542969 95.617188c-32.066407 84.480468-51.742188 208.488281-12.078125 334.714843-23.300782 25.054688-51.574219 45.429688-83.257813 59.570313-4.199219-70.3125-7.785156-275.675782 79.257813-412.445313 18.933594-29.769531 42.171875-56.289062 70.621094-77.457031-16.976563 16.980469-37.511719 50.707031-54.542969 95.617188zm0 0" fill="#9db750"/><path d="m232.050781 510.890625c-20.960937-1.941406-41.191406-6.414063-60.375-13.101563-10.4375-3.636718-20.5625-7.929687-30.332031-12.832031-15.320312-63.988281 61.15625-172.15625 22.707031-217.179687-27.097656-31.722656-81.503906-7.773438-82.539062-7.324219 22.988281-50.148437 92.996093-53.65625 134.78125-21.933594 54.566406 41.429688-39.382813 185.4375 15.757812 272.371094zm0 0" fill="#bed37c"/><path d="m91.648438 452.261719c-2.269532-1.890625-4.492188-3.824219-6.6875-5.796875-15.359376-13.8125-29.046876-29.457032-40.710938-46.582032 14.828125-73.425781-23.886719-179.804687-24.386719-181.207031 73.9375 92.839844 78.128907 182.011719 71.785157 233.585938zm0 0" fill="#9db750"/><path d="m502.273438 251.066406c-.410157 1.140625-26.292969 72.257813-27.703126 138.285156-8.996093 14.699219-19.421874 28.429688-31.105468 40.980469-4.796875 5.148438-9.789063 10.101563-14.992188 14.835938.960938-51.804688 16.257813-121.84375 73.800782-194.101563zm0 0" fill="#9db750"/><path d="m354.148438 448.273438c4.699218 15.589843 7.269531 29.046874 8.179687 40.664062-.699219.324219-1.410156.648438-2.121094.964844-15.234375 6.800781-31.253906 12.140625-47.886719 15.878906-4.160156.929688-8.359374 1.765625-12.601562 2.488281-8.253906-78.691406-9.769531-232.9375 70.089844-394.074219-.574219 2.53125-49.945313 220.578126-15.660156 334.078126zm0 0" fill="#bed37c"/><path d="m135.355469 481.84375c-13.875-7.417969-26.980469-16.089844-39.183594-25.859375-3.824219-3.0625-7.566406-6.238281-11.210937-9.519531 20.230468-73.375-21.734376-188.71875-22.257813-190.171875 70.230469 88.1875 77.53125 173.054687 72.652344 225.550781zm0 0" fill="#bed37c"/><path d="m312.351562 487.203125c3.007813 6.199219 5.140626 11.851563 6.519532 17.011719-2.171875.554687-4.355469 1.078125-6.550782 1.566406-4.160156.929688-8.359374 1.765625-12.601562 2.488281-14.160156 2.445313-28.722656 3.71875-43.59375 3.730469-6.183594-51.722656-1.621094-140.402344 71.890625-232.71875-.574219 1.578125-49.949219 137.289062-15.664063 207.921875zm0 0" fill="#9db750"/></svg>