<svg id="Layer_6" enable-background="new 0 0 64 64" height="512" viewBox="0 0 64 64" width="512" xmlns="http://www.w3.org/2000/svg"><g><g><g><path d="m47 61.99h-15-15-9s2.59-12.93 14.96-14.78c-.87 4.87 2.04 7.78 2.04 7.78l7-4 7 4s2.91-2.91 2.04-7.78c12.37 1.85 14.96 14.78 14.96 14.78z" fill="#b4dd7f"/></g><g><path d="m47.34 14.84c1.48 1.68 1.66 3.15 1.66 3.15v9l-.1.12c-1.19-1.12-2.9-1.12-2.9-1.12v-4c0-1.1-.9-2-2-2h-22c-4 0-4 2-4 2v4s-1.71 0-2.9 1.12l-.1-.12v-9s.18-1.48 1.67-3.16c1.96-2.24 6.21-4.84 15.33-4.84 9.14 0 13.38 2.61 15.34 4.85z" fill="#b27946"/></g><g><path d="m48.9 27.11c.62.59 1.1 1.5 1.1 2.88 0 4-4 4-4 4v-8s1.71 0 2.9 1.12z" fill="#f0d0b4"/></g><g><path d="m38 44.15c-1.64.52-3.62.84-6 .84s-4.36-.32-6-.84c-8-2.59-8-10.16-8-10.16v-8-4s0-2 4-2h22c1.1 0 2 .9 2 2v4 8s0 7.57-8 10.16z" fill="#f0d0b4"/></g><g><path d="m41.04 47.21c.87 4.87-2.04 7.78-2.04 7.78l-7-4c5 0 6-4 6-4 1.08 0 2.09.08 3.04.22z" fill="#a0d468"/></g><g><path d="m38 44.15v2.84s-1 4-6 4-6-4-6-4v-2.84c1.64.52 3.62.84 6 .84s4.36-.32 6-.84z" fill="#f0d0b4"/></g><g><path d="m32 50.99-7 4s-2.91-2.91-2.04-7.78c.95-.14 1.96-.22 3.04-.22 0 0 1 4 6 4z" fill="#a0d468"/></g><g><path d="m18 25.99v8s-4 0-4-4c0-1.38.48-2.29 1.1-2.88 1.19-1.12 2.9-1.12 2.9-1.12z" fill="#f0d0b4"/></g></g><g><path d="m30 31.993c0-.184-.035-1.824-1.258-2.705-.795-.573-1.823-.654-3.059-.243l.633 1.896c.331-.108.933-.261 1.253-.033.316.224.427.833.431 1.085 0 .944-1.983 1-1.995 1-.502-.006-3.005-.177-3.005-3s2.503-2.994 3.005-3l-.005-2c-1.729 0-5 1.045-5 5s3.271 5 5 5c1.383 0 4-.627 4-3z"/><path d="m41.742 29.288c-.794-.573-1.824-.654-3.059-.243l.633 1.896c.331-.108.933-.261 1.253-.033.316.224.427.833.431 1.085 0 .944-1.983 1-1.995 1-.502-.006-3.005-.177-3.005-3s2.503-2.994 3.005-3l-.005-2c-1.729 0-5 1.045-5 5s3.271 5 5 5c1.383 0 4-.627 4-3 0-.183-.035-1.824-1.258-2.705z"/><path d="m32 38.939-3-1-3.316 1.106.632 1.896 2.684-.894 3 1 3-1 2.684.894.632-1.896-3.316-1.106z"/><path d="m37 18.993h2v-2h2v-2h-2v-2h-2v2h-2v2h2z"/><path d="m41 7.993h2v-2h2v-2h-2v-2h-2v2h-2v2h2z"/><path d="m13 10.993h2v-3h3v-2h-3v-3h-2v3h-3v2h3z"/><path d="m63 9.993c0-5.832-13.465-6-15-6v2c4.242 0 13 .978 13 4 0 2.014-6.217 3.402-13.206 3.846-2.244-2.347-6.751-4.846-15.794-4.846-8.995 0-13.503 2.472-15.759 4.809-7.532-.596-13.241-2.555-13.241-4.809 0-2.943 3.839-2.999 4.003-3l-.003-2c-2.075 0-6 1.045-6 5 0 4.161 7.128 6.024 13.821 6.691-.667 1.18-.799 2.073-.813 2.185l-.008 8.967c-.595.751-1 1.773-1 3.157 0 3.329 2.315 4.592 4.079 4.91.288 2.156 1.637 7.576 7.921 9.948v1.173c-14.774.655-17.949 15.618-17.98 15.773l-.24 1.196h25.22 25.22l-.239-1.196c-.032-.155-3.207-15.118-17.981-15.772v-1.173c6.283-2.372 7.633-7.793 7.921-9.948 1.764-.318 4.079-1.582 4.079-4.911 0-1.384-.405-2.406-1-3.157v-8.843l-.008-.124c-.014-.11-.142-.967-.771-2.108 6.14-.465 13.779-1.834 13.779-5.768zm-48 20c0-1.881 1.11-2.582 2-2.844v5.688c-.89-.262-2-.963-2-2.844zm8.842 18.113c.472-.051.957-.085 1.458-.102.538 1.209 1.725 2.729 3.794 3.497l-3.853 2.201c-.638-.91-1.676-2.855-1.399-5.596zm30.864 12.887h-6.886l-.839-4.196-1.961.393.761 3.804h-13.781-13.78l.761-3.804-1.961-.393-.839 4.196h-6.887c.907-2.993 4.013-10.615 12.516-12.549-.239 4.473 2.36 7.133 2.483 7.256l.54.54 7.167-4.095 7.167 4.095.54-.54c.124-.123 2.722-2.783 2.483-7.256 8.503 1.934 11.609 9.556 12.516 12.549zm-15.945-7.288-3.855-2.203c2.07-.768 3.257-2.288 3.794-3.497.501.017.986.051 1.458.102.28 2.749-.757 4.688-1.397 5.598zm-1.761-6.858c-.171.519-1.221 3.147-5 3.147-3.778 0-4.826-2.615-5-3.147v-1.39c1.448.34 3.102.536 5 .536s3.552-.197 5-.536zm10-14.01v-5.688c.89.262 2 .963 2 2.844 0 1.882-1.111 2.583-2 2.844zm1-14.766v7.316c-.339-.133-.677-.227-1-.29v-3.104h-2v11.997c-.002.408-.211 10.003-13 10.003s-12.998-9.595-13-10l-.002-11.944c.049-.365.74-1.056 3.002-1.056v-2c-4.943 0-5 2.878-5 3v3.104c-.323.063-.661.157-1 .29v-7.316c.04-.209.251-1.111 1.093-2.204 1.386.087 2.713.126 3.907.126v-2c-.626 0-1.245-.01-1.856-.028 2.277-1.564 6.18-2.972 12.856-2.972 6.71 0 10.618 1.408 12.889 2.974-.631.016-1.261.026-1.889.026v2c.951 0 2.341-.019 3.947-.093.805 1.067 1.012 1.948 1.053 2.171z"/><path d="m42 23.993v-2c-5.508 0-6.862-1.308-7.188-1.869-.437-.753.031-1.59.051-1.625l-.863-.506-.857-.515c-.407.678-.881 2.202-.08 3.617 1.104 1.95 4.027 2.898 8.937 2.898z"/><path d="m33 23.993v-2c-6.087 0-7.132-1.368-7.308-1.787-.354-.849.641-2.127 1.017-2.508l-.709-.705-.707-.707c-.245.245-2.37 2.46-1.449 4.683.843 2.035 3.838 3.024 9.156 3.024z"/></g></g></svg>