<svg id="Capa_1" enable-background="new 0 0 512 512" height="512" viewBox="0 0 512 512" width="512" xmlns="http://www.w3.org/2000/svg"><circle cx="256" cy="256" fill="#6bbcd5" r="256"/><g fill="#f1d333"><path d="m99.294 256.51s-71.651 26.168-78.493 6.62c-6.842-19.547 35.185-34.208 35.185-47.891s-55.222-16.127-52.778-40.072 59.62 0 64.507-16.615-44.959-41.05-32.253-53.756 79.167 5.864 79.167 5.864l22.48 88.941"/><path d="m412.706 256.51s71.651 26.168 78.493 6.62c6.842-19.547-35.185-34.208-35.185-47.891s55.222-16.127 52.778-40.072c-2.443-23.946-59.62 0-64.507-16.615s44.959-41.05 32.253-53.756-79.167 5.864-79.167 5.864l-22.48 88.941"/><path d="m398.41 468.76c-12.34 8.28-25.44 15.52-39.18 21.57-10.65 4.7-21.68 8.7-33.03 11.92-22.3 6.35-45.85 9.75-70.2 9.75-24.34 0-47.89-3.4-70.2-9.74-7.24-2.06-14.36-4.44-21.33-7.12-.43-.16-.86-.32-1.29-.49-3.51-1.36-6.98-2.81-10.41-4.32-13.74-6.06-26.84-13.29-39.19-21.58 10.39-14.37 23.76-26.43 39.19-35.32 10.2-5.87 21.3-10.34 33.03-13.15 1.81-.44 3.64-.84 5.48-1.19 3.47-.68 7-1.2 10.57-1.57 1.03-.11 2.05-.21 3.09-.29 3.38-.28 6.8-.42 10.26-.42h81.59c4.52 0 8.97.24 13.35.7 3.57.37 7.09.9 10.57 1.56 1.39.27 2.77.56 4.14.87.45.12.91.21 1.35.33 11.74 2.82 22.83 7.29 33.03 13.16 15.43 8.9 28.79 20.96 39.18 35.33z"/></g><path d="m215.2 416.81c-29.36 0-49.26 42.43-50.73 78.33-.43-.16-.86-.32-1.29-.49-3.51-1.36-6.98-2.81-10.41-4.32-13.74-6.06-26.84-13.29-39.19-21.58 10.39-14.37 23.76-26.43 39.19-35.32 10.2-5.87 21.3-10.34 33.03-13.15 1.81-.44 3.64-.84 5.48-1.19 3.47-.68 7-1.2 10.57-1.57 1.03-.11 2.05-.21 3.09-.29 3.38-.28 6.8-.42 10.26-.42z" fill="#e7a52e"/><path d="m300.706 368.538v54.869c0 20.088-13.245 37.067-31.489 42.707-4.176 1.296-8.627 1.997-13.23 1.997-24.691 0-44.703-20.012-44.703-44.703v-54.869h89.422z" fill="#efb29a"/><path d="m300.706 419.932v3.475c0 20.088-13.245 37.067-31.489 42.707-16.461-5.06-28.837-19.372-31.123-36.884 2.987.183 5.99.274 9.008.274 8.459 0 16.75-.671 24.828-1.997 9.953-1.6 19.57-4.161 28.776-7.575z" fill="#f9c5ac"/><path d="m132.54 278.153c0 20.497-14.973 37.492-34.579 40.646-2.143.347-4.347.528-6.596.528-22.746 0-41.175-18.429-41.175-41.175s18.429-41.175 41.175-41.175c2.249 0 4.453.181 6.596.528 19.606 3.156 34.579 20.152 34.579 40.648z" fill="#f9c5ac"/><path d="m132.54 278.153c0 20.497-14.973 37.492-34.579 40.646-3.562-12.95-5.464-26.579-5.464-40.646s1.902-27.696 5.464-40.646c19.606 3.154 34.579 20.15 34.579 40.646z" fill="#efb29a"/><circle cx="91.365" cy="278.153" fill="#efb29a" r="14.716"/><path d="m379.449 278.153c0 20.497 14.973 37.492 34.579 40.646 2.143.347 4.347.528 6.596.528 22.746 0 41.175-18.429 41.175-41.175s-18.429-41.175-41.175-41.175c-2.249 0-4.453.181-6.596.528-19.606 3.156-34.579 20.152-34.579 40.648z" fill="#f9c5ac"/><path d="m379.449 278.153c0 20.497 14.973 37.492 34.579 40.646 3.562-12.95 5.464-26.579 5.464-40.646s-1.902-27.696-5.464-40.646c-19.606 3.154-34.579 20.15-34.579 40.646z" fill="#efb29a"/><circle cx="420.624" cy="278.153" fill="#efb29a" r="14.716"/><path d="m410.696 256.511c0 76.985-56.241 140.847-129.873 152.705-8.078 1.326-16.369 1.997-24.828 1.997-85.444 0-154.701-69.257-154.701-154.701v-157.5h309.403v157.499z" fill="#f9c5ac"/><path d="m283.243 408.81c-.8.14-1.61.28-2.42.41-8.08 1.32-16.37 1.99-24.83 1.99-85.44 0-154.7-69.25-154.7-154.7v-157.5h54.55v157.5c0 76.14 54.98 139.41 127.4 152.3z" fill="#efb29a"/><path d="m255.995 315.279c12.954 0 25.908 3.246 37.716 9.737 3.331 1.831 4.547 6.015 2.715 9.346-1.831 3.331-6.016 4.545-9.346 2.715-19.465-10.701-42.707-10.7-62.17 0-3.329 1.831-7.514.616-9.346-2.715-1.831-3.331-.616-7.515 2.715-9.346 11.808-6.491 24.762-9.737 37.716-9.737z" fill="#dd9f8a"/><path d="m273.544 291.694h-35.098c-4.181 0-7.57-3.389-7.57-7.57 0-4.181 3.389-7.57 7.57-7.57h35.098c4.181 0 7.57 3.389 7.57 7.57 0 4.18-3.389 7.57-7.57 7.57z" fill="#efb29a"/><path d="m421.09 164.34c-54.61 31.2-143.12 11-198.15-6.87-29.41-9.54-49.26-18.41-49.26-18.41-11.97 40.05-50.55 71.83-72.39 71.83 0 0-46.66-117.72-12.74-151.64s62.52 0 62.52 0c2.36-33.88 20.13-48.57 44.75-52.45.01-.01.03-.01.04-.01 1.07-.17 2.15-.32 3.25-.45 49.41-5.79 123.72 28.51 158.42 39.58.01 0 .01.01.02.01 6.56 2.09 11.7 3.35 14.99 3.35 29.93 0 32.59-32.59 32.59-32.59s99.76 99.76 15.96 147.65z" fill="#544f57"/><path d="m222.94 157.47c-29.41-9.54-49.26-18.41-49.26-18.41-11.97 40.05-50.55 71.83-72.39 71.83 0 0-46.66-117.72-12.74-151.64s62.52 0 62.52 0c2.36-33.88 20.13-48.57 44.75-52.45-27.87 8.08-15.12 120.97 27.12 150.67z" fill="#454545"/><path d="m312.097 291.134c-1.068 0-2.151-.264-3.151-.819-29.137-16.187-31.263-42.139-31.339-43.236-.249-3.581 2.453-6.686 6.034-6.935 3.568-.255 6.663 2.432 6.932 5.993.076.891 1.992 20.206 24.687 32.813 3.138 1.743 4.269 5.701 2.525 8.839-1.188 2.138-3.404 3.345-5.688 3.345z" fill="#efb29a"/><path d="m199.893 291.134c-2.284 0-4.5-1.206-5.688-3.344-1.743-3.138-.613-7.095 2.525-8.839 22.74-12.633 24.618-32 24.687-32.819.299-3.559 3.422-6.232 6.977-5.96 3.561.273 6.236 3.345 5.989 6.907-.076 1.097-2.202 27.049-31.339 43.236-1.001.555-2.084.819-3.151.819z" fill="#efb29a"/><path d="m357.55 45.93c6.56 2.09 11.7 3.35 14.99 3.35 29.93 0 32.59-32.59 32.59-32.59 7.54 25.27 4.16 59.8-47.58 29.24z" fill="#454545"/><path d="m167.301 229.036 60.597 17.592-47.892 21.502" style="fill:none;stroke:#dd9f8a;stroke-width:13;stroke-linecap:round;stroke-linejoin:round;stroke-miterlimit:10"/><path d="m344.689 229.036-60.597 17.592 47.891 21.502" style="fill:none;stroke:#dd9f8a;stroke-width:13;stroke-linecap:round;stroke-linejoin:round;stroke-miterlimit:10"/></svg>