<svg xmlns="http://www.w3.org/2000/svg" height="512pt" version="1.1" viewBox="0 0 512 512" width="512pt">
<g id="surface1">
<path d="M 512 256 C 512 282.050781 508.109375 307.191406 500.871094 330.871094 C 500.449219 332.261719 500.011719 333.640625 499.558594 335.011719 C 498.691406 337.710938 497.769531 340.390625 496.808594 343.039062 C 495.160156 347.628906 493.371094 352.148438 491.460938 356.601562 L 491.460938 356.609375 C 489.351562 361.570312 487.070312 366.441406 484.648438 371.238281 L 484.648438 371.25 C 480.941406 378.609375 476.878906 385.75 472.488281 392.679688 C 469.410156 397.550781 466.171875 402.308594 462.769531 406.949219 C 451.960938 421.738281 439.601562 435.320312 425.929688 447.460938 C 420.710938 452.101562 415.308594 456.519531 409.71875 460.71875 C 389.730469 475.761719 367.460938 487.941406 343.519531 496.648438 C 331.871094 500.890625 319.820312 504.300781 307.441406 506.820312 C 303.738281 507.578125 300.011719 508.261719 296.25 508.851562 L 296.238281 508.851562 C 295.21875 509.011719 294.210938 509.171875 293.179688 509.308594 C 288.898438 509.941406 284.589844 510.460938 280.25 510.871094 C 275.449219 511.320312 270.621094 511.640625 265.75 511.808594 L 265.738281 511.808594 C 265.289062 511.839844 264.828125 511.851562 264.378906 511.859375 C 262.371094 511.929688 260.371094 511.96875 258.351562 511.988281 C 257.570312 512 256.789062 512 256.011719 512 L 256 512 C 255.558594 512 255.128906 512 254.691406 511.988281 C 252.328125 511.980469 249.980469 511.941406 247.628906 511.871094 C 247.539062 511.859375 247.460938 511.859375 247.371094 511.859375 C 242.53125 511.699219 237.710938 511.398438 232.941406 510.96875 C 228.199219 510.550781 223.5 510 218.839844 509.320312 C 218.25 509.238281 217.671875 509.148438 217.089844 509.058594 C 213.03125 508.441406 209 507.730469 205.011719 506.910156 C 192.589844 504.410156 180.5 501 168.808594 496.761719 C 144.820312 488.070312 122.5 475.898438 102.460938 460.851562 C 96.859375 456.648438 91.449219 452.230469 86.230469 447.589844 C 72.539062 435.460938 60.160156 421.878906 49.328125 407.101562 C 45.929688 402.460938 42.679688 397.691406 39.609375 392.820312 C 34.941406 385.46875 30.648438 377.878906 26.769531 370.050781 C 25.011719 366.558594 23.351562 363.03125 21.769531 359.449219 C 21.191406 358.140625 20.621094 356.820312 20.058594 355.488281 C 18.179688 351.050781 16.429688 346.550781 14.800781 341.988281 C 14.011719 339.761719 13.25 337.519531 12.511719 335.269531 C 4.390625 310.308594 0 283.671875 0 256 C 0 114.621094 114.621094 0 256 0 C 397.378906 0 512 114.621094 512 256 Z M 512 256 " style=" stroke:none;fill-rule:nonzero;fill:rgb(55.686275%,30.980392%,82.352941%);fill-opacity:1;" />
<path d="M 512 256 C 512 256.640625 512 257.28125 511.988281 257.921875 C 511.960938 261.941406 511.839844 265.941406 511.621094 269.921875 C 510.828125 284.820312 508.761719 299.371094 505.511719 313.46875 C 504.25 318.988281 502.808594 324.429688 501.191406 329.800781 C 501.089844 330.160156 500.980469 330.511719 500.871094 330.871094 C 494.558594 351.519531 485.71875 371.058594 474.699219 389.121094 C 471.289062 394.710938 467.671875 400.160156 463.851562 405.460938 C 449.640625 425.199219 432.671875 442.839844 413.519531 457.808594 C 406.019531 463.679688 398.179688 469.128906 390.03125 474.140625 C 354.75 495.871094 313.789062 509.28125 269.910156 511.621094 C 267.378906 511.761719 264.839844 511.859375 262.289062 511.921875 C 262.28125 511.921875 262.28125 511.921875 262.269531 511.921875 C 260.960938 511.960938 259.628906 511.980469 258.308594 511.988281 L 257.921875 511.988281 C 257.621094 512 257.308594 512 257.011719 512 L 254.988281 512 C 254.691406 512 254.378906 512 254.078125 511.988281 L 253.691406 511.988281 C 252.390625 511.980469 251.089844 511.960938 249.789062 511.921875 L 249.78125 511.921875 C 247.25 511.871094 244.738281 511.769531 242.230469 511.628906 C 197.140625 509.238281 155.148438 495.179688 119.210938 472.421875 C 111.261719 467.390625 103.609375 461.929688 96.300781 456.078125 C 77.488281 441.050781 60.839844 423.421875 46.921875 403.730469 C 43.160156 398.429688 39.609375 392.988281 36.261719 387.398438 C 30.878906 378.429688 26.039062 369.101562 21.769531 359.449219 C 17.289062 349.320312 13.441406 338.851562 10.300781 328.078125 C 8.71875 322.710938 7.308594 317.261719 6.089844 311.738281 C 3.058594 298.128906 1.121094 284.109375 0.359375 269.769531 C 0.160156 265.839844 0.0390625 261.890625 0.0117188 257.921875 C 0 257.28125 0 256.640625 0 256 C 0 254.871094 0.0117188 253.75 0.03125 252.628906 C 0.601562 207.671875 12.769531 165.519531 33.679688 129 C 50.738281 158.800781 73.609375 184.839844 100.761719 205.558594 C 109.179688 212 118.011719 217.921875 127.210938 223.28125 L 127.21875 223.28125 C 130.949219 225.46875 134.738281 227.550781 138.589844 229.53125 C 142.25 231.429688 145.949219 233.238281 149.710938 234.949219 C 151.148438 235.609375 152.589844 236.261719 154.050781 236.890625 C 159.03125 239.058594 164.101562 241.070312 169.25 242.910156 C 173.839844 244.578125 178.5 246.109375 183.210938 247.5 C 197.601562 251.761719 212.519531 254.789062 227.851562 256.460938 C 230.570312 256.769531 233.300781 257.019531 236.050781 257.21875 C 239.96875 257.539062 243.910156 257.75 247.878906 257.871094 C 250.578125 257.960938 253.28125 258 256 258 C 258.75 258 261.488281 257.960938 264.21875 257.871094 C 268.378906 257.738281 272.511719 257.511719 276.609375 257.171875 C 279.921875 256.921875 283.210938 256.589844 286.46875 256.199219 C 300.988281 254.480469 315.128906 251.550781 328.789062 247.5 C 334.21875 245.890625 339.578125 244.109375 344.851562 242.148438 C 349.980469 240.261719 355.03125 238.199219 359.988281 236 C 361.109375 235.5 362.21875 234.988281 363.328125 234.480469 C 367.070312 232.75 370.761719 230.929688 374.390625 229.019531 C 378.308594 226.988281 382.160156 224.839844 385.949219 222.601562 L 385.960938 222.601562 C 394.910156 217.328125 403.5 211.519531 411.699219 205.210938 C 438.648438 184.539062 461.359375 158.628906 478.320312 129 C 499.230469 165.519531 511.398438 207.671875 511.96875 252.628906 C 511.988281 253.75 512 254.871094 512 256 Z M 512 256 " style=" stroke:none;fill-rule:nonzero;fill:rgb(35.686275%,20.392157%,60%);fill-opacity:1;" />
<path d="M 424.480469 309.351562 C 423.859375 315.601562 422.96875 321.859375 421.828125 328.121094 C 421.179688 331.691406 420.449219 335.25 419.621094 338.808594 C 418.421875 344.039062 417.03125 349.269531 415.441406 354.46875 C 413.640625 360.429688 411.589844 366.359375 409.28125 372.261719 C 408.660156 373.859375 408.011719 375.460938 407.351562 377.050781 C 405.648438 381.148438 403.839844 385.179688 401.929688 389.121094 C 401.160156 390.738281 400.371094 392.351562 399.558594 393.941406 C 397.570312 397.859375 395.46875 401.699219 393.289062 405.460938 C 390.96875 409.46875 388.539062 413.378906 386.011719 417.210938 C 376.140625 432.171875 364.75 445.738281 352.128906 457.808594 C 346.078125 463.609375 339.75 469.050781 333.171875 474.140625 C 315.03125 488.171875 295 499.46875 273.78125 507.75 C 271.300781 508.71875 268.808594 509.648438 266.300781 510.53125 C 264.96875 511.011719 263.628906 511.46875 262.289062 511.921875 C 262.28125 511.921875 262.28125 511.921875 262.269531 511.921875 C 260.960938 511.960938 259.628906 511.980469 258.308594 511.988281 L 257.921875 511.988281 C 257.621094 512 257.308594 512 257.011719 512 L 254.988281 512 C 253.671875 509.46875 252.398438 506.921875 251.179688 504.339844 C 250.039062 501.941406 248.941406 499.53125 247.878906 497.089844 C 247.140625 495.410156 246.429688 493.71875 245.730469 492.019531 C 242.871094 485.03125 240.339844 477.898438 238.148438 470.671875 C 235.800781 462.910156 233.839844 455.03125 232.289062 447.050781 C 231.890625 445.03125 231.519531 443 231.179688 440.96875 C 230.621094 437.640625 230.128906 434.300781 229.71875 430.949219 C 229.621094 430.199219 229.53125 429.441406 229.449219 428.679688 C 229.410156 428.410156 229.378906 428.140625 229.359375 427.871094 C 228.46875 419.980469 227.988281 412.019531 227.898438 404.03125 C 227.808594 395.421875 228.191406 386.761719 229.058594 378.089844 C 229.96875 368.910156 231.429688 359.71875 233.449219 350.558594 C 234.328125 346.539062 235.328125 342.519531 236.429688 338.519531 C 237.679688 334.011719 239.058594 329.519531 240.589844 325.039062 C 241.050781 323.691406 241.519531 322.339844 242 320.988281 C 243.308594 317.339844 244.71875 313.710938 246.21875 310.089844 C 246.761719 308.789062 247.308594 307.488281 247.878906 306.199219 C 250.390625 300.449219 253.101562 294.851562 256 289.398438 C 256.078125 289.238281 256.171875 289.070312 256.261719 288.910156 C 258.769531 284.210938 261.421875 279.621094 264.21875 275.148438 C 266.660156 271.21875 269.210938 267.378906 271.871094 263.628906 C 273.410156 261.441406 274.988281 259.289062 276.609375 257.171875 C 278.800781 254.28125 281.058594 251.449219 283.371094 248.679688 C 293.039062 237.078125 303.71875 226.539062 315.210938 217.148438 C 319.980469 213.238281 324.890625 209.53125 329.929688 206.019531 C 334.480469 202.839844 339.128906 199.828125 343.878906 196.988281 C 357.671875 188.738281 372.261719 181.910156 387.390625 176.578125 C 390.761719 175.390625 394.148438 174.28125 397.570312 173.25 C 399.269531 176.441406 400.898438 179.660156 402.441406 182.929688 C 405.898438 190.199219 408.988281 197.628906 411.699219 205.210938 C 414.578125 213.238281 417.019531 221.441406 419.019531 229.75 C 420.328125 235.140625 421.441406 240.570312 422.359375 246.039062 C 423.261719 251.339844 423.980469 256.679688 424.511719 262.050781 C 426.070312 277.640625 426.089844 293.480469 424.480469 309.351562 Z M 424.480469 309.351562 " style=" stroke:none;fill-rule:nonzero;fill:rgb(42.352941%,86.27451%,17.647059%);fill-opacity:1;" />
<path d="M 424.480469 309.351562 C 423.859375 315.601562 422.96875 321.859375 421.828125 328.121094 C 421.179688 331.691406 420.449219 335.25 419.621094 338.808594 C 418.421875 344.039062 417.03125 349.269531 415.441406 354.46875 C 413.640625 360.429688 411.589844 366.359375 409.28125 372.261719 C 408.660156 373.859375 408.011719 375.460938 407.351562 377.050781 C 405.648438 381.148438 403.839844 385.179688 401.929688 389.121094 C 401.160156 390.738281 400.371094 392.351562 399.558594 393.941406 C 397.570312 397.859375 395.46875 401.699219 393.289062 405.460938 C 390.96875 409.46875 388.539062 413.378906 386.011719 417.210938 C 376.140625 432.171875 364.75 445.738281 352.128906 457.808594 C 346.078125 463.609375 339.75 469.050781 333.171875 474.140625 C 315.03125 488.171875 295 499.46875 273.78125 507.75 C 271.300781 508.71875 268.808594 509.648438 266.300781 510.53125 C 264.96875 511.011719 263.628906 511.46875 262.289062 511.921875 C 262.28125 511.921875 262.28125 511.921875 262.269531 511.921875 C 260.960938 511.960938 259.628906 511.980469 258.308594 511.988281 L 257.921875 511.988281 C 257.621094 512 257.308594 512 257.011719 512 L 256.789062 512 L 260.460938 503.191406 L 264.171875 494.25 L 264.21875 494.128906 L 273.910156 470.808594 L 283.628906 447.421875 L 284.570312 445.171875 L 286.449219 440.640625 L 287.390625 438.378906 L 295.988281 417.679688 L 297.5 414.050781 L 312.421875 378.148438 L 313.828125 374.75 L 320.910156 357.71875 L 321.839844 355.46875 L 323.71875 350.949219 L 324.660156 348.691406 L 342.160156 306.578125 L 342.53125 305.691406 L 361.96875 258.921875 L 362.898438 256.671875 L 364.78125 252.140625 L 364.789062 252.140625 L 365.71875 249.890625 L 374.390625 229.019531 L 397.570312 173.25 C 399.269531 176.441406 400.898438 179.660156 402.441406 182.929688 C 405.898438 190.199219 408.988281 197.628906 411.699219 205.210938 C 414.578125 213.238281 417.019531 221.441406 419.019531 229.75 C 420.328125 235.140625 421.441406 240.570312 422.359375 246.039062 C 423.261719 251.339844 423.980469 256.679688 424.511719 262.050781 C 426.070312 277.640625 426.089844 293.480469 424.480469 309.351562 Z M 424.480469 309.351562 " style=" stroke:none;fill-rule:nonzero;fill:rgb(0%,62.745098%,25.882353%);fill-opacity:1;" />
<path d="M 402.441406 182.929688 L 385.960938 222.601562 L 385.949219 222.601562 L 375.519531 247.710938 L 367.328125 267.410156 L 355.558594 295.75 L 355.550781 295.75 L 343.199219 325.46875 L 334.460938 346.519531 L 327.640625 362.929688 L 326.28125 366.199219 L 313.828125 396.160156 L 311.210938 402.460938 L 297.5 435.449219 L 297.191406 436.210938 L 297.179688 436.210938 L 289 455.898438 L 279.390625 479.03125 L 271.21875 498.691406 L 270.121094 501.351562 L 266.300781 510.53125 C 264.96875 511.011719 263.628906 511.46875 262.289062 511.921875 C 262.28125 511.921875 262.28125 511.921875 262.269531 511.921875 C 260.960938 511.960938 259.628906 511.980469 258.308594 511.988281 L 257.921875 511.988281 C 257.621094 512 257.308594 512 257.011719 512 L 254.988281 512 C 253.671875 509.46875 252.398438 506.921875 251.179688 504.339844 L 251.621094 503.289062 L 253.199219 499.488281 L 254.910156 495.359375 L 256 492.738281 L 256.070312 492.570312 L 257.140625 490.011719 L 257.140625 490 L 264.21875 472.960938 L 274.140625 449.089844 L 280.941406 432.730469 L 282.789062 428.269531 L 283 427.761719 L 297.371094 393.199219 L 297.5 392.878906 L 311.410156 359.410156 L 313.828125 353.589844 L 320.28125 338.078125 L 328.609375 318.019531 L 340.070312 290.460938 L 352.46875 260.609375 L 361.339844 239.269531 L 363.328125 234.480469 L 387.390625 176.578125 C 390.761719 175.390625 394.148438 174.28125 397.570312 173.25 C 399.269531 176.441406 400.898438 179.660156 402.441406 182.929688 Z M 402.441406 182.929688 " style=" stroke:none;fill-rule:nonzero;fill:rgb(1.176471%,44.705882%,18.823529%);fill-opacity:1;" />
<path d="M 368.359375 256.28125 L 353.261719 262.515625 L 329.933594 206.015625 C 334.480469 202.839844 339.132812 199.832031 343.878906 196.992188 Z M 368.359375 256.28125 " style=" stroke:none;fill-rule:nonzero;fill:rgb(1.176471%,44.705882%,18.823529%);fill-opacity:1;" />
<path d="M 422.359375 246.042969 L 367.8125 268.5625 L 363.5625 258.261719 L 362.902344 256.667969 L 361.578125 253.464844 L 364.78125 252.144531 L 419.023438 229.75 C 420.332031 235.136719 421.445312 240.566406 422.359375 246.042969 Z M 422.359375 246.042969 " style=" stroke:none;fill-rule:nonzero;fill:rgb(1.176471%,44.705882%,18.823529%);fill-opacity:1;" />
<path d="M 327.300781 355.085938 L 322.503906 357.066406 L 320.90625 357.722656 L 312.203125 361.316406 L 271.871094 263.628906 C 275.515625 258.460938 279.355469 253.484375 283.367188 248.675781 Z M 327.300781 355.085938 " style=" stroke:none;fill-rule:nonzero;fill:rgb(1.176471%,44.705882%,18.823529%);fill-opacity:1;" />
<path d="M 421.824219 328.117188 L 326.753906 367.367188 L 320.519531 352.269531 L 323.722656 350.945312 L 424.484375 309.347656 C 423.855469 315.601562 422.972656 321.863281 421.824219 328.117188 Z M 421.824219 328.117188 " style=" stroke:none;fill-rule:nonzero;fill:rgb(1.176471%,44.705882%,18.823529%);fill-opacity:1;" />
<path d="M 290.027344 444.78125 L 274.925781 451.015625 L 233.453125 350.558594 C 235.332031 342.015625 237.703125 333.496094 240.589844 325.039062 Z M 290.027344 444.78125 " style=" stroke:none;fill-rule:nonzero;fill:rgb(1.176471%,44.705882%,18.823529%);fill-opacity:1;" />
<path d="M 399.558594 393.945312 C 395.4375 402.03125 390.914062 409.785156 386.011719 417.207031 L 289.480469 457.0625 L 284.570312 445.167969 L 283.246094 441.964844 L 286.449219 440.640625 L 288.046875 439.984375 L 297.1875 436.207031 Z M 399.558594 393.945312 " style=" stroke:none;fill-rule:nonzero;fill:rgb(1.176471%,44.705882%,18.823529%);fill-opacity:1;" />
<path d="M 284.300781 406.269531 C 284.148438 413.378906 283.671875 420.449219 282.878906 427.480469 C 282.859375 427.738281 282.828125 428 282.789062 428.269531 C 282.691406 429.261719 282.570312 430.25 282.441406 431.230469 C 281.671875 437.25 280.671875 443.230469 279.441406 449.148438 C 277.941406 456.46875 276.089844 463.691406 273.910156 470.808594 C 271.710938 478.050781 269.148438 485.171875 266.28125 492.148438 L 266.269531 492.160156 C 265.609375 493.769531 264.929688 495.359375 264.21875 496.949219 C 263.160156 499.398438 262.039062 501.828125 260.890625 504.238281 C 259.648438 506.859375 258.359375 509.441406 257.011719 512 L 254.988281 512 C 254.691406 512 254.378906 512 254.078125 511.988281 L 253.691406 511.988281 C 252.390625 511.980469 251.089844 511.960938 249.789062 511.921875 L 249.78125 511.921875 C 248.460938 511.480469 247.140625 511.019531 245.820312 510.550781 C 243.320312 509.660156 240.828125 508.730469 238.359375 507.761719 C 216.351562 499.128906 195.621094 487.238281 176.960938 472.421875 C 170.53125 467.320312 164.351562 461.871094 158.441406 456.078125 C 145.761719 443.671875 134.359375 429.710938 124.550781 414.351562 C 122.328125 410.878906 120.191406 407.339844 118.148438 403.730469 C 115.839844 399.671875 113.640625 395.511719 111.550781 391.261719 C 110.921875 389.980469 110.289062 388.691406 109.691406 387.398438 C 108.03125 383.898438 106.460938 380.328125 104.960938 376.710938 C 104.421875 375.410156 103.898438 374.109375 103.398438 372.808594 C 101.089844 366.960938 99.039062 361.070312 97.238281 355.148438 C 95.621094 349.878906 94.199219 344.589844 92.980469 339.28125 C 91.929688 334.761719 91.019531 330.238281 90.238281 325.710938 C 89.171875 319.480469 88.359375 313.25 87.800781 307.011719 C 86.441406 291.980469 86.539062 276.980469 88.019531 262.210938 C 88.628906 256.070312 89.480469 249.96875 90.558594 243.921875 C 91.53125 238.460938 92.691406 233.039062 94.039062 227.671875 C 95.921875 220.191406 98.160156 212.808594 100.761719 205.558594 C 103.558594 197.699219 106.769531 190 110.371094 182.480469 C 111.910156 179.25 113.53125 176.070312 115.21875 172.921875 C 118.679688 173.980469 122.101562 175.101562 125.511719 176.328125 C 141.140625 181.859375 156.171875 189.03125 170.339844 197.699219 C 175.070312 200.589844 179.699219 203.640625 184.21875 206.871094 C 188.601562 209.980469 192.878906 213.25 197.050781 216.660156 C 209.179688 226.589844 220.398438 237.769531 230.480469 250.128906 C 232.378906 252.449219 234.238281 254.808594 236.050781 257.21875 C 238.050781 259.859375 239.988281 262.539062 241.878906 265.28125 C 243.949219 268.269531 245.949219 271.308594 247.878906 274.410156 C 250.738281 278.960938 253.441406 283.640625 256 288.429688 C 256.089844 288.589844 256.179688 288.75 256.261719 288.910156 C 259.101562 294.25 261.761719 299.738281 264.21875 305.371094 C 264.910156 306.941406 265.578125 308.519531 266.238281 310.121094 C 267.941406 314.21875 269.5 318.339844 270.949219 322.480469 C 271.550781 324.179688 272.121094 325.871094 272.679688 327.570312 C 274.03125 331.75 275.269531 335.941406 276.390625 340.140625 C 277.578125 344.609375 278.628906 349.101562 279.550781 353.601562 C 281.191406 361.589844 282.398438 369.601562 283.191406 377.601562 C 284.148438 387.191406 284.519531 396.761719 284.300781 406.269531 Z M 284.300781 406.269531 " style=" stroke:none;fill-rule:nonzero;fill:rgb(42.352941%,86.27451%,17.647059%);fill-opacity:1;" />
<path d="M 284.300781 406.269531 C 284.148438 413.378906 283.671875 420.449219 282.878906 427.480469 C 282.859375 427.738281 282.828125 428 282.789062 428.269531 C 282.691406 429.261719 282.570312 430.25 282.441406 431.230469 C 281.671875 437.25 280.671875 443.230469 279.441406 449.148438 C 277.941406 456.46875 276.089844 463.691406 273.910156 470.808594 C 271.710938 478.050781 269.148438 485.171875 266.28125 492.148438 L 266.269531 492.160156 C 265.609375 493.769531 264.929688 495.359375 264.21875 496.949219 C 263.160156 499.398438 262.039062 501.828125 260.890625 504.238281 C 259.648438 506.859375 258.359375 509.441406 257.011719 512 L 255.210938 512 L 251.621094 503.289062 L 247.878906 494.238281 L 247.828125 494.121094 L 238.148438 470.671875 L 228.519531 447.359375 L 227.589844 445.101562 L 225.71875 440.570312 L 224.789062 438.308594 L 216.230469 417.578125 L 214.738281 413.96875 L 199.890625 378 L 198.5 374.628906 L 191.449219 357.570312 L 190.53125 355.320312 L 188.648438 350.789062 L 188.648438 350.78125 L 187.71875 348.539062 L 170.328125 306.398438 L 170.320312 306.390625 L 169.941406 305.460938 L 150.628906 258.679688 L 149.691406 256.421875 L 147.820312 251.890625 L 146.890625 249.640625 L 138.589844 229.53125 L 115.21875 172.921875 C 118.679688 173.980469 122.101562 175.101562 125.511719 176.328125 C 141.140625 181.859375 156.171875 189.03125 170.339844 197.699219 C 175.070312 200.589844 179.699219 203.640625 184.21875 206.871094 C 188.601562 209.980469 192.878906 213.25 197.050781 216.660156 C 209.179688 226.589844 220.398438 237.769531 230.480469 250.128906 C 232.378906 252.449219 234.238281 254.808594 236.050781 257.21875 C 238.050781 259.859375 239.988281 262.539062 241.878906 265.28125 C 243.949219 268.269531 245.949219 271.308594 247.878906 274.410156 C 250.738281 278.960938 253.441406 283.640625 256 288.429688 C 256.089844 288.589844 256.179688 288.75 256.261719 288.910156 C 259.101562 294.25 261.761719 299.738281 264.21875 305.371094 C 264.910156 306.941406 265.578125 308.519531 266.238281 310.121094 C 267.941406 314.21875 269.5 318.339844 270.949219 322.480469 C 271.550781 324.179688 272.121094 325.871094 272.679688 327.570312 C 274.03125 331.75 275.269531 335.941406 276.390625 340.140625 C 277.578125 344.609375 278.628906 349.101562 279.550781 353.601562 C 281.191406 361.589844 282.398438 369.601562 283.191406 377.601562 C 284.148438 387.191406 284.519531 396.761719 284.300781 406.269531 Z M 284.300781 406.269531 " style=" stroke:none;fill-rule:nonzero;fill:rgb(0%,62.745098%,25.882353%);fill-opacity:1;" />
<path d="M 260.890625 504.238281 C 259.648438 506.859375 258.359375 509.441406 257.011719 512 L 254.988281 512 C 254.691406 512 254.378906 512 254.078125 511.988281 L 253.691406 511.988281 C 252.390625 511.980469 251.089844 511.960938 249.789062 511.921875 L 249.78125 511.921875 C 248.460938 511.480469 247.140625 511.019531 245.820312 510.550781 L 242.109375 501.558594 L 241.019531 498.929688 L 232.851562 479.140625 L 222.988281 455.25 L 216.230469 438.878906 L 214.179688 433.898438 L 199.890625 399.300781 L 199.761719 398.988281 L 185.921875 365.46875 L 183.519531 359.648438 L 177.109375 344.121094 L 168.808594 324.03125 L 157.429688 296.460938 L 145.089844 266.578125 L 136.269531 245.21875 L 127.21875 223.28125 L 127.210938 223.28125 L 110.371094 182.480469 C 111.910156 179.25 113.53125 176.070312 115.21875 172.921875 C 118.679688 173.980469 122.101562 175.101562 125.511719 176.328125 L 149.710938 234.949219 L 152.28125 241.160156 L 160.421875 260.878906 L 172.121094 289.238281 L 184.410156 319 L 193.109375 340.058594 L 199.890625 356.488281 L 201.25 359.78125 L 213.621094 389.75 L 216.230469 396.070312 L 229.359375 427.871094 L 229.871094 429.101562 L 230.179688 429.839844 L 230.179688 429.851562 L 238.308594 449.558594 L 247.878906 472.730469 L 254.859375 489.628906 L 254.859375 489.640625 L 256 492.398438 L 256.070312 492.570312 L 257.089844 495.039062 L 258.929688 499.488281 L 260.460938 503.191406 Z M 260.890625 504.238281 " style=" stroke:none;fill-rule:nonzero;fill:rgb(1.176471%,44.705882%,18.823529%);fill-opacity:1;" />
<path d="M 153.277344 252.289062 L 147.007812 267.375 L 90.5625 243.917969 C 91.53125 238.457031 92.695312 233.039062 94.042969 227.675781 Z M 153.277344 252.289062 " style=" stroke:none;fill-rule:nonzero;fill:rgb(1.176471%,44.705882%,18.823529%);fill-opacity:1;" />
<path d="M 184.222656 206.867188 L 161.574219 261.359375 L 151.285156 257.082031 L 149.691406 256.421875 L 146.492188 255.089844 L 147.820312 251.890625 L 170.339844 197.703125 C 175.074219 200.589844 179.699219 203.640625 184.222656 206.867188 Z M 184.222656 206.867188 " style=" stroke:none;fill-rule:nonzero;fill:rgb(1.176471%,44.705882%,18.823529%);fill-opacity:1;" />
<path d="M 194.109375 351.1875 L 192.117188 355.980469 L 191.453125 357.574219 L 187.839844 366.273438 L 90.242188 325.714844 C 89.167969 319.480469 88.363281 313.246094 87.800781 307.011719 Z M 194.109375 351.1875 " style=" stroke:none;fill-rule:nonzero;fill:rgb(1.176471%,44.705882%,18.823529%);fill-opacity:1;" />
<path d="M 241.878906 265.277344 L 202.40625 360.257812 L 187.320312 353.988281 L 188.652344 350.789062 L 230.484375 250.125 C 234.464844 254.996094 238.265625 260.046875 241.878906 265.277344 Z M 241.878906 265.277344 " style=" stroke:none;fill-rule:nonzero;fill:rgb(1.176471%,44.705882%,18.823529%);fill-opacity:1;" />
<path d="M 231.175781 440.96875 L 224.90625 456.054688 L 124.550781 414.347656 C 119.835938 406.976562 115.488281 399.277344 111.550781 391.257812 Z M 231.175781 440.96875 " style=" stroke:none;fill-rule:nonzero;fill:rgb(1.176471%,44.705882%,18.823529%);fill-opacity:1;" />
<path d="M 272.679688 327.570312 C 275.484375 336.203125 277.769531 344.886719 279.550781 353.597656 L 239.472656 450.039062 L 227.589844 445.101562 L 224.390625 443.769531 L 225.71875 440.570312 L 226.382812 438.976562 L 230.175781 429.84375 Z M 272.679688 327.570312 " style=" stroke:none;fill-rule:nonzero;fill:rgb(1.176471%,44.705882%,18.823529%);fill-opacity:1;" />
<path d="M 343.238281 329.449219 C 343.238281 334.019531 343.109375 338.550781 342.859375 343.050781 C 342.761719 344.71875 342.648438 346.378906 342.53125 348.039062 C 342.179688 352.539062 341.710938 357.011719 341.121094 361.441406 C 340.519531 365.898438 339.789062 370.328125 338.949219 374.71875 C 335.558594 392.421875 330.199219 409.429688 323.121094 425.5 C 320.300781 431.921875 317.199219 438.191406 313.828125 444.300781 C 313.71875 444.519531 313.601562 444.730469 313.480469 444.949219 L 313.46875 444.960938 C 312.941406 445.910156 312.398438 446.871094 311.859375 447.820312 C 308.890625 453.011719 305.730469 458.070312 302.390625 463 C 298.230469 469.160156 293.78125 475.101562 289.078125 480.828125 C 283.160156 488.03125 276.828125 494.878906 270.121094 501.351562 C 268.179688 503.210938 266.21875 505.039062 264.21875 506.839844 C 262.269531 508.601562 260.308594 510.308594 258.308594 511.988281 L 257.921875 511.988281 C 257.621094 512 257.308594 512 257.011719 512 L 254.988281 512 C 254.691406 512 254.378906 512 254.078125 511.988281 L 253.691406 511.988281 C 251.71875 510.339844 249.789062 508.648438 247.878906 506.921875 C 245.929688 505.171875 244 503.378906 242.109375 501.558594 C 235.308594 495.039062 228.898438 488.109375 222.921875 480.828125 C 217.769531 474.570312 212.941406 468.039062 208.441406 461.269531 C 205.441406 456.75 202.578125 452.121094 199.890625 447.378906 C 199.460938 446.628906 199.039062 445.878906 198.621094 445.128906 C 198.53125 444.96875 198.441406 444.808594 198.359375 444.648438 C 194.46875 437.621094 190.929688 430.371094 187.761719 422.929688 C 180.839844 406.710938 175.679688 389.558594 172.488281 371.71875 C 171.738281 367.550781 171.109375 363.351562 170.578125 359.101562 C 170.019531 354.578125 169.589844 350.019531 169.289062 345.421875 C 169.179688 343.871094 169.089844 342.320312 169.019531 340.761719 C 168.828125 337.011719 168.75 333.238281 168.75 329.449219 C 168.75 327.640625 168.769531 325.828125 168.808594 324.03125 C 168.949219 317.96875 169.308594 311.96875 169.878906 306.03125 C 169.910156 305.839844 169.921875 305.648438 169.941406 305.460938 C 170.488281 300 171.21875 294.589844 172.121094 289.238281 C 172.839844 285.019531 173.671875 280.839844 174.609375 276.699219 C 175.988281 270.53125 177.628906 264.460938 179.488281 258.480469 C 180.640625 254.78125 181.878906 251.121094 183.210938 247.5 C 187.101562 236.839844 191.730469 226.539062 197.050781 216.660156 C 199.878906 211.390625 202.910156 206.238281 206.121094 201.21875 C 209.101562 196.539062 212.238281 191.96875 215.53125 187.53125 C 225.101562 174.621094 235.949219 162.710938 247.878906 151.988281 C 250.53125 149.601562 253.230469 147.269531 256 145 C 258.800781 147.300781 261.53125 149.648438 264.21875 152.078125 C 276.550781 163.160156 287.699219 175.519531 297.488281 188.941406 C 300.769531 193.421875 303.878906 198 306.828125 202.710938 C 309.789062 207.421875 312.589844 212.230469 315.210938 217.148438 C 320.421875 226.878906 324.96875 237.019531 328.789062 247.5 C 330.339844 251.730469 331.769531 256.011719 333.078125 260.351562 C 334.898438 266.371094 336.488281 272.488281 337.828125 278.710938 C 338.671875 282.589844 339.421875 286.511719 340.070312 290.460938 C 340.921875 295.589844 341.601562 300.78125 342.109375 306.03125 C 342.128906 306.210938 342.148438 306.390625 342.160156 306.578125 C 342.761719 312.808594 343.109375 319.109375 343.199219 325.46875 C 343.230469 326.789062 343.238281 328.121094 343.238281 329.449219 Z M 343.238281 329.449219 " style=" stroke:none;fill-rule:nonzero;fill:rgb(42.352941%,86.27451%,17.647059%);fill-opacity:1;" />
<path d="M 343.238281 329.449219 C 343.238281 334.019531 343.109375 338.550781 342.859375 343.050781 C 342.761719 344.71875 342.648438 346.378906 342.53125 348.039062 C 342.179688 352.539062 341.710938 357.011719 341.121094 361.441406 C 340.519531 365.898438 339.789062 370.328125 338.949219 374.71875 C 335.558594 392.421875 330.199219 409.429688 323.121094 425.5 C 320.300781 431.921875 317.199219 438.191406 313.828125 444.300781 C 313.71875 444.519531 313.601562 444.730469 313.480469 444.949219 L 313.46875 444.960938 C 312.941406 445.910156 312.398438 446.871094 311.859375 447.820312 C 308.890625 453.011719 305.730469 458.070312 302.390625 463 C 298.230469 469.160156 293.78125 475.101562 289.078125 480.828125 C 283.160156 488.03125 276.828125 494.878906 270.121094 501.351562 C 268.179688 503.210938 266.21875 505.039062 264.21875 506.839844 C 262.269531 508.601562 260.308594 510.308594 258.308594 511.988281 L 257.921875 511.988281 C 257.621094 512 257.308594 512 257.011719 512 L 256 512 L 256 467.238281 C 256.011719 467.230469 256.011719 467.21875 256 467.210938 L 256 145 C 258.800781 147.300781 261.53125 149.648438 264.21875 152.078125 C 276.550781 163.160156 287.699219 175.519531 297.488281 188.941406 C 300.769531 193.421875 303.878906 198 306.828125 202.710938 C 309.789062 207.421875 312.589844 212.230469 315.210938 217.148438 C 320.421875 226.878906 324.96875 237.019531 328.789062 247.5 C 330.339844 251.730469 331.769531 256.011719 333.078125 260.351562 C 334.898438 266.371094 336.488281 272.488281 337.828125 278.710938 C 338.671875 282.589844 339.421875 286.511719 340.070312 290.460938 C 340.921875 295.589844 341.601562 300.78125 342.109375 306.03125 C 342.128906 306.210938 342.148438 306.390625 342.160156 306.578125 C 342.761719 312.808594 343.109375 319.109375 343.199219 325.46875 C 343.230469 326.789062 343.238281 328.121094 343.238281 329.449219 Z M 343.238281 329.449219 " style=" stroke:none;fill-rule:nonzero;fill:rgb(0%,62.745098%,25.882353%);fill-opacity:1;" />
<path d="M 264.21875 152.078125 L 264.21875 506.839844 C 262.269531 508.601562 260.308594 510.308594 258.308594 511.988281 L 257.921875 511.988281 C 257.621094 512 257.308594 512 257.011719 512 L 254.988281 512 C 254.691406 512 254.378906 512 254.078125 511.988281 L 253.691406 511.988281 C 251.71875 510.339844 249.789062 508.648438 247.878906 506.921875 L 247.878906 151.988281 C 250.53125 149.601562 253.230469 147.269531 256 145 C 258.800781 147.300781 261.53125 149.648438 264.21875 152.078125 Z M 264.21875 152.078125 " style=" stroke:none;fill-rule:nonzero;fill:rgb(1.176471%,44.705882%,18.823529%);fill-opacity:1;" />
<path d="M 260.890625 232.890625 L 249.339844 244.441406 L 206.117188 201.21875 C 209.097656 196.539062 212.238281 191.976562 215.53125 187.53125 Z M 260.890625 232.890625 " style=" stroke:none;fill-rule:nonzero;fill:rgb(1.176471%,44.705882%,18.823529%);fill-opacity:1;" />
<path d="M 306.828125 202.710938 L 265.101562 244.441406 L 253.550781 232.890625 L 256 230.441406 L 297.492188 188.945312 C 300.769531 193.417969 303.878906 198.003906 306.828125 202.710938 Z M 306.828125 202.710938 " style=" stroke:none;fill-rule:nonzero;fill:rgb(1.176471%,44.705882%,18.823529%);fill-opacity:1;" />
<path d="M 260.890625 339.882812 L 257.222656 343.554688 L 256 344.773438 L 249.339844 351.433594 L 174.609375 276.703125 C 175.992188 270.53125 177.628906 264.460938 179.488281 258.480469 Z M 260.890625 339.882812 " style=" stroke:none;fill-rule:nonzero;fill:rgb(1.176471%,44.705882%,18.823529%);fill-opacity:1;" />
<path d="M 337.828125 278.703125 L 265.101562 351.433594 L 253.550781 339.882812 L 333.082031 260.351562 C 334.902344 266.371094 336.488281 272.492188 337.828125 278.703125 Z M 337.828125 278.703125 " style=" stroke:none;fill-rule:nonzero;fill:rgb(1.176471%,44.705882%,18.823529%);fill-opacity:1;" />
<path d="M 260.890625 437.015625 L 249.339844 448.566406 L 172.492188 371.71875 C 170.945312 363.109375 169.871094 354.332031 169.289062 345.414062 Z M 260.890625 437.015625 " style=" stroke:none;fill-rule:nonzero;fill:rgb(1.176471%,44.705882%,18.823529%);fill-opacity:1;" />
<path d="M 342.527344 348.039062 C 341.824219 357.089844 340.625 365.984375 338.949219 374.71875 L 265.101562 448.566406 L 256 439.46875 L 253.550781 437.015625 Z M 342.527344 348.039062 " style=" stroke:none;fill-rule:nonzero;fill:rgb(1.176471%,44.705882%,18.823529%);fill-opacity:1;" />
<path d="M 512 256 C 512 256.640625 512 257.28125 511.988281 257.921875 C 511.960938 261.941406 511.839844 265.941406 511.621094 269.921875 C 510.828125 284.820312 508.761719 299.371094 505.511719 313.46875 C 504.25 318.988281 502.808594 324.429688 501.191406 329.800781 C 501.089844 330.160156 500.980469 330.511719 500.871094 330.871094 C 494.558594 351.519531 485.71875 371.058594 474.699219 389.121094 C 471.289062 394.710938 467.671875 400.160156 463.851562 405.460938 C 449.640625 425.199219 432.671875 442.839844 413.519531 457.808594 C 406.019531 463.679688 398.179688 469.128906 390.03125 474.140625 C 354.75 495.871094 313.789062 509.28125 269.910156 511.621094 C 267.378906 511.761719 264.839844 511.859375 262.289062 511.921875 C 262.28125 511.921875 262.28125 511.921875 262.269531 511.921875 C 260.960938 511.960938 259.628906 511.980469 258.308594 511.988281 L 257.921875 511.988281 C 257.621094 512 257.308594 512 257.011719 512 L 255.820312 512 C 255.558594 509.078125 255.351562 506.160156 255.199219 503.21875 C 255.171875 502.609375 255.140625 502.011719 255.109375 501.398438 C 255.019531 499.390625 254.949219 497.371094 254.910156 495.359375 C 254.871094 493.449219 254.859375 491.550781 254.859375 489.640625 L 254.859375 489.628906 C 254.890625 482.140625 255.261719 474.660156 255.988281 467.199219 L 255.988281 467.191406 C 255.988281 467.171875 256 467.160156 256 467.140625 C 256.789062 459.070312 257.980469 451.039062 259.601562 443.070312 C 260.671875 437.75 261.921875 432.460938 263.359375 427.210938 C 263.589844 426.371094 263.828125 425.539062 264.070312 424.710938 L 264.070312 424.699219 C 264.121094 424.519531 264.171875 424.351562 264.21875 424.171875 C 266.441406 416.449219 269.058594 408.839844 272.089844 401.328125 L 272.089844 401.320312 C 275.328125 393.261719 279.03125 385.339844 283.191406 377.601562 C 287.46875 369.628906 292.238281 361.859375 297.5 354.320312 C 298.121094 353.421875 298.761719 352.53125 299.398438 351.640625 C 300.609375 349.941406 301.851562 348.261719 303.121094 346.589844 C 303.761719 345.738281 304.410156 344.890625 305.070312 344.050781 C 307.871094 340.449219 310.789062 336.921875 313.828125 333.449219 C 314.851562 332.28125 315.878906 331.128906 316.929688 329.980469 C 319.449219 327.199219 322.050781 324.46875 324.738281 321.789062 C 326.019531 320.511719 327.308594 319.25 328.609375 318.019531 C 332.988281 313.808594 337.488281 309.820312 342.109375 306.03125 C 342.25 305.921875 342.390625 305.800781 342.53125 305.691406 C 346.78125 302.199219 351.121094 298.898438 355.550781 295.75 L 355.558594 295.75 C 359.050781 293.269531 362.589844 290.898438 366.179688 288.628906 C 371.519531 285.238281 376.96875 282.109375 382.519531 279.191406 C 396.050781 272.078125 410.109375 266.359375 424.511719 262.050781 C 430.238281 260.308594 436.019531 258.808594 441.839844 257.53125 C 447.25 256.328125 452.699219 255.320312 458.171875 254.511719 C 474.070312 252.148438 490.160156 251.398438 506.179688 252.25 C 508.109375 252.351562 510.039062 252.46875 511.96875 252.628906 C 511.988281 253.75 512 254.871094 512 256 Z M 512 256 " style=" stroke:none;fill-rule:nonzero;fill:rgb(42.352941%,86.27451%,17.647059%);fill-opacity:1;" />
<path d="M 511.988281 257.921875 C 511.960938 261.941406 511.839844 265.941406 511.621094 269.921875 C 510.828125 284.820312 508.761719 299.371094 505.511719 313.46875 C 504.25 318.988281 502.808594 324.429688 501.191406 329.800781 C 501.089844 330.160156 500.980469 330.511719 500.871094 330.871094 C 494.558594 351.519531 485.71875 371.058594 474.699219 389.121094 C 471.289062 394.710938 467.671875 400.160156 463.851562 405.460938 C 449.640625 425.199219 432.671875 442.839844 413.519531 457.808594 C 406.019531 463.679688 398.179688 469.128906 390.03125 474.140625 C 354.75 495.871094 313.789062 509.28125 269.910156 511.621094 C 267.378906 511.761719 264.839844 511.859375 262.289062 511.921875 C 262.28125 511.921875 262.28125 511.921875 262.269531 511.921875 C 260.960938 511.960938 259.628906 511.980469 258.308594 511.988281 L 257.921875 511.988281 L 312.101562 457.808594 L 312.109375 457.808594 L 313.828125 456.078125 L 329.28125 440.628906 L 456.441406 313.46875 L 456.449219 313.46875 L 458.171875 311.738281 Z M 511.988281 257.921875 " style=" stroke:none;fill-rule:nonzero;fill:rgb(0%,62.745098%,25.882353%);fill-opacity:1;" />
<path d="M 512 256 C 512 256.640625 512 257.28125 511.988281 257.921875 C 511.960938 261.941406 511.839844 265.941406 511.621094 269.921875 L 452.980469 328.558594 L 409.28125 372.261719 L 392.421875 389.121094 L 379.179688 402.359375 L 377.328125 404.199219 L 349.089844 432.449219 L 323.730469 457.808594 L 323.71875 457.808594 L 308.640625 472.890625 L 269.910156 511.621094 C 267.378906 511.761719 264.839844 511.859375 262.289062 511.921875 C 262.28125 511.921875 262.28125 511.921875 262.269531 511.921875 C 260.960938 511.960938 259.628906 511.980469 258.308594 511.988281 L 257.921875 511.988281 C 257.621094 512 257.308594 512 257.011719 512 L 255.820312 512 C 255.558594 509.078125 255.351562 506.160156 255.199219 503.21875 L 256 502.421875 L 256.070312 502.359375 L 256.878906 501.539062 L 264.21875 494.199219 L 266.269531 492.160156 L 266.28125 492.148438 L 279.390625 479.03125 L 297.5 460.921875 L 309.71875 448.710938 L 313.480469 444.949219 L 313.828125 444.589844 L 366.179688 392.238281 L 382.519531 375.910156 L 506.179688 252.25 C 508.109375 252.351562 510.039062 252.46875 511.96875 252.628906 C 511.988281 253.75 512 254.871094 512 256 Z M 512 256 " style=" stroke:none;fill-rule:nonzero;fill:rgb(1.176471%,44.705882%,18.823529%);fill-opacity:1;" />
<path d="M 458.171875 318.65625 L 441.839844 318.65625 L 441.839844 257.53125 C 447.253906 256.332031 452.699219 255.324219 458.171875 254.511719 Z M 458.171875 318.65625 " style=" stroke:none;fill-rule:nonzero;fill:rgb(1.176471%,44.705882%,18.823529%);fill-opacity:1;" />
<path d="M 505.511719 313.46875 C 504.25 318.988281 502.808594 324.429688 501.191406 329.800781 L 452.980469 329.800781 L 452.980469 313.46875 Z M 505.511719 313.46875 " style=" stroke:none;fill-rule:nonzero;fill:rgb(1.176471%,44.705882%,18.823529%);fill-opacity:1;" />
<path d="M 382.515625 394.316406 L 366.179688 394.316406 L 366.179688 288.628906 C 371.523438 285.242188 376.972656 282.105469 382.515625 279.195312 Z M 382.515625 394.316406 " style=" stroke:none;fill-rule:nonzero;fill:rgb(1.176471%,44.705882%,18.823529%);fill-opacity:1;" />
<path d="M 474.699219 389.121094 C 471.289062 394.710938 467.671875 400.160156 463.851562 405.460938 L 377.328125 405.460938 L 377.328125 389.121094 Z M 474.699219 389.121094 " style=" stroke:none;fill-rule:nonzero;fill:rgb(1.176471%,44.705882%,18.823529%);fill-opacity:1;" />
<path d="M 313.835938 462.996094 L 297.5 462.996094 L 297.5 354.320312 C 302.496094 347.136719 307.9375 340.171875 313.835938 333.453125 Z M 313.835938 462.996094 " style=" stroke:none;fill-rule:nonzero;fill:rgb(1.176471%,44.705882%,18.823529%);fill-opacity:1;" />
<path d="M 413.519531 457.808594 C 406.019531 463.679688 398.179688 469.128906 390.03125 474.140625 L 308.640625 474.140625 L 308.640625 457.808594 Z M 413.519531 457.808594 " style=" stroke:none;fill-rule:nonzero;fill:rgb(1.176471%,44.705882%,18.823529%);fill-opacity:1;" />
<path d="M 257.140625 490 L 257.140625 490.011719 C 257.140625 491.691406 257.128906 493.359375 257.089844 495.039062 C 257.058594 497.210938 256.988281 499.371094 256.878906 501.539062 C 256.859375 502.058594 256.839844 502.578125 256.808594 503.101562 C 256.660156 506.078125 256.449219 509.039062 256.179688 512 L 254.988281 512 C 254.691406 512 254.378906 512 254.078125 511.988281 L 253.691406 511.988281 C 252.390625 511.980469 251.089844 511.960938 249.789062 511.921875 L 249.78125 511.921875 C 247.25 511.871094 244.738281 511.769531 242.230469 511.628906 C 197.140625 509.238281 155.148438 495.179688 119.210938 472.421875 C 111.261719 467.390625 103.609375 461.929688 96.300781 456.078125 C 77.488281 441.050781 60.839844 423.421875 46.921875 403.730469 C 43.160156 398.429688 39.609375 392.988281 36.261719 387.398438 C 30.878906 378.429688 26.039062 369.101562 21.769531 359.449219 C 17.289062 349.320312 13.441406 338.851562 10.300781 328.078125 C 8.71875 322.710938 7.308594 317.261719 6.089844 311.738281 C 3.058594 298.128906 1.121094 284.109375 0.359375 269.769531 C 0.160156 265.839844 0.0390625 261.890625 0.0117188 257.921875 C 0 257.28125 0 256.640625 0 256 C 0 254.871094 0.0117188 253.75 0.03125 252.628906 C 2 252.46875 3.96875 252.351562 5.949219 252.25 C 22.511719 251.359375 39.140625 252.21875 55.550781 254.789062 C 61.03125 255.628906 66.46875 256.679688 71.890625 257.921875 C 77.300781 259.160156 82.679688 260.578125 88.019531 262.210938 C 102.851562 266.691406 117.320312 272.660156 131.210938 280.109375 C 136.75 283.078125 142.199219 286.289062 147.539062 289.730469 C 150.878906 291.878906 154.179688 294.121094 157.429688 296.460938 C 161.660156 299.488281 165.808594 302.679688 169.878906 306.03125 C 170.03125 306.148438 170.179688 306.269531 170.320312 306.390625 L 170.328125 306.398438 C 175.148438 310.378906 179.851562 314.578125 184.410156 319 C 185.359375 319.921875 186.308594 320.851562 187.25 321.789062 C 190.46875 325.011719 193.589844 328.308594 196.589844 331.671875 C 197.710938 332.921875 198.808594 334.171875 199.890625 335.441406 C 202.828125 338.871094 205.660156 342.371094 208.371094 345.921875 C 211.109375 349.5 213.730469 353.140625 216.230469 356.839844 C 220.910156 363.738281 225.191406 370.828125 229.058594 378.089844 C 233.570312 386.511719 237.53125 395.140625 240.941406 403.941406 C 243.488281 410.480469 245.730469 417.101562 247.660156 423.789062 C 247.738281 424.039062 247.820312 424.289062 247.878906 424.550781 C 248.191406 425.601562 248.480469 426.640625 248.761719 427.691406 L 248.761719 427.699219 C 250.328125 433.460938 251.679688 439.269531 252.800781 445.109375 C 254.21875 452.429688 255.28125 459.800781 255.988281 467.191406 L 255.988281 467.199219 L 256 467.210938 L 256 467.238281 C 256.75 474.808594 257.121094 482.398438 257.140625 490 Z M 257.140625 490 " style=" stroke:none;fill-rule:nonzero;fill:rgb(42.352941%,86.27451%,17.647059%);fill-opacity:1;" />
<path d="M 257.140625 490 L 257.140625 490.011719 C 257.140625 491.691406 257.128906 493.359375 257.089844 495.039062 C 257.058594 497.210938 256.988281 499.371094 256.878906 501.539062 C 256.859375 502.058594 256.839844 502.578125 256.808594 503.101562 C 256.660156 506.078125 256.449219 509.039062 256.179688 512 L 254.988281 512 C 254.691406 512 254.378906 512 254.078125 511.988281 L 203.359375 461.269531 L 199.890625 457.808594 L 199.890625 457.800781 L 59.019531 316.929688 L 55.550781 313.46875 L 55.550781 313.460938 L 0.0117188 257.921875 C 0 257.28125 0 256.640625 0 256 C 0 254.871094 0.0117188 253.75 0.03125 252.628906 C 2 252.46875 3.96875 252.351562 5.949219 252.25 C 22.511719 251.359375 39.140625 252.21875 55.550781 254.789062 C 61.03125 255.628906 66.46875 256.679688 71.890625 257.921875 C 77.300781 259.160156 82.679688 260.578125 88.019531 262.210938 C 102.851562 266.691406 117.320312 272.660156 131.210938 280.109375 C 136.75 283.078125 142.199219 286.289062 147.539062 289.730469 C 150.878906 291.878906 154.179688 294.121094 157.429688 296.460938 C 161.660156 299.488281 165.808594 302.679688 169.878906 306.03125 C 170.03125 306.148438 170.179688 306.269531 170.320312 306.390625 L 170.328125 306.398438 C 175.148438 310.378906 179.851562 314.578125 184.410156 319 C 185.359375 319.921875 186.308594 320.851562 187.25 321.789062 C 190.46875 325.011719 193.589844 328.308594 196.589844 331.671875 C 197.710938 332.921875 198.808594 334.171875 199.890625 335.441406 C 202.828125 338.871094 205.660156 342.371094 208.371094 345.921875 C 211.109375 349.5 213.730469 353.140625 216.230469 356.839844 C 220.910156 363.738281 225.191406 370.828125 229.058594 378.089844 C 233.570312 386.511719 237.53125 395.140625 240.941406 403.941406 C 243.488281 410.480469 245.730469 417.101562 247.660156 423.789062 C 247.738281 424.039062 247.820312 424.289062 247.878906 424.550781 C 248.191406 425.601562 248.480469 426.640625 248.761719 427.691406 L 248.761719 427.699219 C 250.328125 433.460938 251.679688 439.269531 252.800781 445.109375 C 254.21875 452.429688 255.28125 459.800781 255.988281 467.191406 L 255.988281 467.199219 L 256 467.210938 L 256 467.238281 C 256.75 474.808594 257.121094 482.398438 257.140625 490 Z M 257.140625 490 " style=" stroke:none;fill-rule:nonzero;fill:rgb(0%,62.745098%,25.882353%);fill-opacity:1;" />
<path d="M 256.808594 503.101562 C 256.660156 506.078125 256.449219 509.039062 256.179688 512 L 254.988281 512 C 254.691406 512 254.378906 512 254.078125 511.988281 L 253.691406 511.988281 C 252.390625 511.980469 251.089844 511.960938 249.789062 511.921875 L 249.78125 511.921875 C 247.25 511.871094 244.738281 511.769531 242.230469 511.628906 L 238.359375 507.761719 L 134.328125 403.730469 L 129.179688 398.589844 L 0.359375 269.769531 C 0.160156 265.839844 0.0390625 261.890625 0.0117188 257.921875 C 0 257.28125 0 256.640625 0 256 C 0 254.871094 0.0117188 253.75 0.03125 252.628906 C 2 252.46875 3.96875 252.351562 5.949219 252.25 L 131.210938 377.511719 L 146.300781 392.589844 L 168.710938 415.011719 L 168.71875 415.019531 L 198.359375 444.648438 L 199.890625 446.179688 L 199.890625 446.191406 L 214.980469 461.269531 L 245.730469 492.019531 Z M 256.808594 503.101562 " style=" stroke:none;fill-rule:nonzero;fill:rgb(1.176471%,44.705882%,18.823529%);fill-opacity:1;" />
<path d="M 60.738281 311.738281 L 60.738281 328.078125 L 10.300781 328.078125 C 8.71875 322.710938 7.308594 317.261719 6.089844 311.738281 Z M 60.738281 311.738281 " style=" stroke:none;fill-rule:nonzero;fill:rgb(1.176471%,44.705882%,18.823529%);fill-opacity:1;" />
<path d="M 71.886719 257.921875 L 71.886719 316.933594 L 55.554688 316.933594 L 55.554688 254.785156 C 61.03125 255.632812 66.472656 256.675781 71.886719 257.921875 Z M 71.886719 257.921875 " style=" stroke:none;fill-rule:nonzero;fill:rgb(1.176471%,44.705882%,18.823529%);fill-opacity:1;" />
<path d="M 136.398438 387.398438 L 136.398438 403.730469 L 46.921875 403.730469 C 43.160156 398.429688 39.609375 392.988281 36.261719 387.398438 Z M 136.398438 387.398438 " style=" stroke:none;fill-rule:nonzero;fill:rgb(1.176471%,44.705882%,18.823529%);fill-opacity:1;" />
<path d="M 147.542969 289.734375 L 147.542969 392.589844 L 131.210938 392.589844 L 131.210938 280.113281 C 136.753906 283.085938 142.203125 286.289062 147.542969 289.734375 Z M 147.542969 289.734375 " style=" stroke:none;fill-rule:nonzero;fill:rgb(1.176471%,44.705882%,18.823529%);fill-opacity:1;" />
<path d="M 205.078125 456.078125 L 205.078125 472.421875 L 119.210938 472.421875 C 111.261719 467.390625 103.609375 461.929688 96.300781 456.078125 Z M 205.078125 456.078125 " style=" stroke:none;fill-rule:nonzero;fill:rgb(1.176471%,44.705882%,18.823529%);fill-opacity:1;" />
<path d="M 199.890625 335.4375 C 205.796875 342.335938 211.238281 349.472656 216.226562 356.835938 L 216.226562 461.273438 L 199.890625 461.273438 Z M 199.890625 335.4375 " style=" stroke:none;fill-rule:nonzero;fill:rgb(1.176471%,44.705882%,18.823529%);fill-opacity:1;" />
</g>
</svg>