<svg id="Capa_1" enable-background="new 0 0 512 512" height="512" viewBox="0 0 512 512" width="512" xmlns="http://www.w3.org/2000/svg"><g><g><path d="m512 256c0 141.387-114.613 256-256 256s-256-114.613-256-256 114.613-256 256-256 256 114.613 256 256zm0 0" fill="#9dcb3b"/><path d="m512 256c0 26.051-3.891 51.191-11.129 74.871-5.031 16.469-11.672 32.231-19.75 47.109-8.25 15.2-18 29.461-29.051 42.61-.582.691-1.16 1.379-1.75 2.058-46.941 54.704-116.59 89.352-194.32 89.352s-147.379-34.648-194.309-89.352c-.589-.687-1.179-1.378-1.75-2.07-11.062-13.137-20.812-27.398-29.05-42.598-3.289-6.031-6.332-12.21-9.121-18.531-14-31.629-21.77-66.629-21.77-103.449 0-46.219 12.25-89.57 33.68-127 44.121 77.07 127.16 129 222.32 129s178.211-51.93 222.32-129c21.43 37.43 33.68 80.781 33.68 127zm0 0" fill="#70ae3e"/><path d="m481.262 377.699c-7.16 13.223-15.434 25.742-24.723 37.43-8.437 10.633-17.719 20.57-27.719 29.723-45.539 41.699-106.211 67.148-172.82 67.148s-127.281-25.449-172.82-67.148c-10-9.153-19.282-19.09-27.719-29.723-9.289-11.688-17.563-24.207-24.723-37.43zm0 0" fill="#5b9b40"/></g><g><g><path d="m186.221 269.424 34.89 107.576h34.889l34.889-107.576z" fill="#cf5318"/><path d="m177.499 269.424h43.612v107.576h-43.612z" fill="#ff6e2e"/><path d="m334.501 269.424h-78.501l34.889 107.576h43.612z" fill="#9e3802"/></g><path d="m351.946 254.887h-17.445v-17.445h17.445c9.619 0 17.445-7.826 17.445-17.445v-53.497h17.445v53.497c0 19.238-15.652 34.89-34.89 34.89z" fill="#522b28"/><path d="m246.696 237.442h-17.445v-17.445h17.445c9.619 0 17.445-7.826 17.445-17.445v-36.052h17.445v36.052c0 19.239-15.652 34.89-34.89 34.89z" fill="#732a04"/><path d="m177.499 254.887h-17.445c-19.238 0-34.889-15.651-34.889-34.889v-53.498h17.445v53.497c0 9.619 7.826 17.445 17.445 17.445h17.445v17.445z" fill="#9e3802"/><path d="m238.555 246.165v-70.942h-52.334v82.572l17.445 17.445h69.779l-17.445-11.631c-9.456 0-17.445-7.988-17.445-17.444z" fill="#732a04"/><path d="m308.334 175.223v70.942c0 9.456-7.989 17.445-17.445 17.445h-34.889v34.889h34.889c28.784 0 52.334-23.55 52.334-52.334v-70.942" fill="#522b28"/><g><path d="m238.555 263.609h-17.445c-9.456 0-17.445-7.989-17.445-17.445v-70.942h-34.889v70.942c0 28.784 23.55 52.334 52.334 52.334h17.445c9.456 0 17.445 7.989 17.445 17.445h23.26l-23.26-49.322c-5.463-1.947-11.335-3.012-17.445-3.012z" fill="#9e3802"/><path d="m256 266.621v110.379h34.889v-61.057c0-22.674-14.615-42.097-34.889-49.322z" fill="#732a04"/></g><g><path d="m404.862 166.5c0-23.273-15.311-43.492-37.141-50.083-6.591-21.831-26.81-37.141-50.082-37.141h-61.639l-40.704 52.334 40.704 52.335h148.862z" fill="#468943"/><path d="m194.362 79.276c-23.273 0-43.491 15.31-50.082 37.141-21.831 6.591-37.141 26.81-37.141 50.083v17.445h148.861v-104.669z" fill="#5b9b40"/></g></g></g></svg>