<svg id="Capa_1" enable-background="new 0 0 512 512" height="512" viewBox="0 0 512 512" width="512" xmlns="http://www.w3.org/2000/svg"><g><g><path d="m512 256c0 34.912-6.987 68.192-19.648 98.517l-.011.011-17.237 33.92h.011c-4.512 7.445-9.397 14.656-14.624 21.579l-14.784 17.867.011.011c-46.849 51.647-114.497 84.095-189.718 84.095-49.099 0-94.965-13.813-133.92-37.781-27.691-21.227-52.8-45.621-74.805-72.704l-9.643-11.861s0 0-.011.011c-23.861-38.902-37.621-84.673-37.621-133.665 0-141.387 114.613-256 256-256s256 114.613 256 256z" fill="#464f6e"/><g><g><path d="m512 256c0 34.912-6.987 68.192-19.648 98.517l-17.248 33.931v.011c-4.501 7.456-9.387 14.645-14.613 21.568l-14.784 17.867c-13.045 14.4-27.712 27.296-43.701 38.421-41.419 28.8-91.734 45.685-146.006 45.685-49.099 0-94.955-13.824-133.92-37.781-27.691-21.227-52.8-45.621-74.805-72.704l-9.643-11.861c-23.872-38.902-37.632-84.673-37.632-133.654 0-46.219 12.245-89.568 33.675-126.997 27.68 48.331 70.656 86.784 122.336 108.725 4.299 1.835 8.661 3.541 13.077 5.131 3.808 1.387 7.659 2.667 11.541 3.861 23.829 7.339 49.141 11.285 75.371 11.285 32.843 0 64.235-6.187 93.088-17.472 6.197-2.4 12.277-5.056 18.229-7.936 5.525-2.677 10.933-5.536 16.224-8.587 39.403-22.677 72.192-55.552 94.784-95.008 21.43 37.43 33.675 80.779 33.675 126.998z" fill="#303c5a"/></g></g></g><g><g><path d="m265.995 360.587c-.949 1.12-2.517 2.421-4.117 3.723-1.6 1.291-3.211 2.571-4.213 3.648-1.995 2.144-.693 6.795-2.816 8.864-2.112 2.059-7.467 1.387-9.696 3.36-2.219 1.973-1.483 6.763-3.819 8.651-2.315 1.867-7.509.683-9.931 2.464-2.411 1.781-2.261 6.656-4.768 8.331s-7.467-.011-10.069 1.557c-2.581 1.557-2.997 6.475-5.675 7.936-2.645 1.44-7.339-.704-10.08.64-2.709 1.323-3.691 6.229-6.485 7.445-2.773 1.205-7.147-1.376-10.005-.277-2.859 1.099-4.373 5.941-7.232 6.912-2.901.96-6.912-2.027-9.813-1.195-2.933.843-4.981 5.579-7.915 6.283-2.955.704-6.56-2.677-9.515-2.101-2.987.587-5.557 5.152-8.523 5.589-2.987.437-6.144-3.296-9.12-2.997-.459.053-1.003.192-1.568.405-1.835.661-1.493 3.264.416 3.563.117.011.224.043.331.064 2.443.597 4.64 4.085 7.093 4.789 2.453.683 5.355-1.365 7.808-.576 2.421.779 4.192 4.331 6.613 5.216 2.4.875 5.653-.875 8.064.096 2.357.96 3.701 4.544 6.069 5.6 2.368 1.045 5.92-.363 8.224.757 2.325 1.141 3.211 4.725 5.472 5.92 2.283 1.216 6.101.139 8.299 1.419 2.24 1.28 2.656 4.832 4.8 6.176 2.165 1.365 6.229.651 8.309 2.069 2.101 1.44 2.059 4.896 4.064 6.379 2.027 1.504 6.283 1.152 8.213 2.709 1.963 1.568 1.429 4.896 3.296 6.518 1.867 1.611 6.261 1.643 8.032 3.306 1.781 1.675.789 4.854 2.464 6.571 1.685 1.728 5.397 4.277 6.976 6.037-1.184 0-2.869-.256-4.555-.533-1.696-.267-3.392-.555-4.597-.608-2.4-.096-4.085 2.773-6.528 2.571-2.421-.203-5.387-3.445-7.851-3.744-2.443-.299-4.565 2.325-7.04 1.92-2.443-.395-5.035-3.787-7.509-4.288-2.443-.501-4.981 1.856-7.456 1.248-2.453-.586-4.64-4.096-7.104-4.779-2.443-.693-5.344 1.365-7.797.576-2.421-.789-4.181-4.341-6.613-5.227-2.411-.864-5.664.875-8.064-.085-2.368-.971-3.701-4.555-6.069-5.611s-5.931.363-8.224-.746c-2.336-1.142-3.221-4.726-5.461-5.931-2.283-1.216-6.112-.139-8.32-1.419-2.219-1.28-2.645-4.821-4.8-6.176-1.099-.704-2.72-.853-4.309-1.024-1.995-.224-3.84 1.259-3.872 3.253-.011.277.021.533.117.779.565 1.482 3.403 2.144 3.883 3.637.373 1.12-.587 2.645-.928 3.968-4.107-2.518-8.139-5.163-12.085-7.904-16.693-11.616-31.947-25.163-45.419-40.331-10.005-11.264-19.04-23.413-26.944-36.331.768.085 1.472.267 2.069.608 2.219 1.291 2.645 4.821 4.8 6.176s6.219.651 8.299 2.07c.085.064.181.128.267.203 1.504 1.216 3.659-.277 2.933-2.08-.224-.565-.491-1.067-.757-1.44-1.771-2.4-6.656-2.251-8.331-4.757-1.664-2.507.011-7.467-1.557-10.069-1.557-2.582-6.475-2.997-7.925-5.664-1.451-2.645.693-7.349-.64-10.091-1.323-2.709-6.24-3.691-7.456-6.485-1.205-2.773 1.387-7.147.288-9.995-1.109-2.859-5.952-4.384-6.912-7.243-.971-2.901 2.027-6.912 1.184-9.813-.832-2.923-5.568-4.981-6.283-7.915-.704-2.965 2.677-6.571 2.101-9.525-.576-2.976-5.152-5.536-5.589-8.512-.437-2.997 3.296-6.144 2.997-9.12-.299-2.997-4.661-6.059-4.821-9.035-.16-2.987 3.883-5.653 3.861-8.629-.021-2.976-4.107-6.496-3.989-9.451.117-2.955 4.437-5.109 4.693-8.021.128-1.472 0-3.52-.107-5.579-.107-2.048-.203-4.085 0-5.536 2.229 1.867 5.216 6.315 7.371 8.32 2.144 1.995 6.784.693 8.853 2.816 2.069 2.112 1.387 7.467 3.371 9.696 1.963 2.219 6.763 1.494 8.651 3.819 1.867 2.315.683 7.509 2.464 9.941 1.771 2.411 6.645 2.25 8.331 4.768 1.664 2.496-.011 7.456 1.557 10.059 1.557 2.581 6.475 2.987 7.936 5.664 1.44 2.656-.704 7.349.629 10.091 1.323 2.709 6.229 3.691 7.456 6.485 1.205 2.773-1.376 7.147-.288 10.005 1.099 2.848 5.952 4.373 6.912 7.232.971 2.901-2.016 6.912-1.195 9.813.853 2.933 5.589 4.981 6.293 7.915.704 2.965-2.667 6.571-2.101 9.525.405 2.059 2.325 3.626 3.637 5.141.917 1.035 1.739 2.261 1.92 3.669.085.704 0 1.397-.213 2.08-.235.747-1.397 2.443.053 2.763.363.064.747-.032 1.067-.224.864-.501 1.504-1.579 2.08-2.379.704-.971 1.301-2.037 1.547-3.221.736-3.605-2.656-7.317-1.771-10.955.896-3.616 5.995-6.859 7.019-10.485 1.035-3.595-1.941-7.872-.768-11.477 1.152-3.573 6.357-6.197 7.659-9.771 1.291-3.541-1.227-8.331.203-11.861 1.419-3.499 6.656-5.483 8.213-8.981 1.557-3.488-.491-8.704 1.163-12.096 1.675-3.435 6.901-4.757 8.672-8.096 1.781-3.36.245-8.981 2.123-12.235 1.899-3.285 7.061-3.936 9.035-7.104 2.005-3.2 1.013-9.173 3.093-12.245 2.101-3.093 7.136-3.051 9.323-6.037 2.208-2.987 1.739-9.237 4.011-12.096 1.195-1.504 3.083-2.027 4.949-2.56 1.717-.501 3.424-1.003 4.555-2.325 2.379-2.773 2.453-9.237 4.896-11.861 2.453-2.635 7.072-1.195 9.589-3.669 1.269-1.259 2.827-3.243 4.405-5.216.021-.021.021-.043.043-.064.651-.811 1.643-.939 2.421-.587.779.341 1.344 1.163 1.184 2.187-.011.032-.021.053-.021.075-.405 2.496-.832 4.981-.917 6.763-.16 3.531 4 5.995 3.691 9.579-.309 3.573-5.067 7.957-5.525 11.584-.107.864.032 1.707.299 2.528.821 2.592 2.901 5.045 2.432 7.797-.597 3.605-5.547 7.445-6.293 11.083-.747 3.616 2.645 7.328 1.76 10.976-.885 3.595-5.995 6.859-7.029 10.485-1.024 3.595 1.952 7.861.779 11.467-1.152 3.573-6.357 6.197-7.659 9.781-1.291 3.541 1.227 8.309-.203 11.851-1.408 3.499-6.656 5.483-8.213 8.971-1.547 3.499.491 8.725-1.163 12.117-1.664 3.424-6.901 4.757-8.672 8.085-1.781 3.371-.245 8.981-2.123 12.235-1.899 3.285-7.061 3.936-9.045 7.115-2.005 3.189-.992 9.152-3.083 12.235-2.101 3.104-7.136 3.061-9.323 6.027-.715.971-1.099 2.123-1.355 3.307-.203.96-.576 2.155-.373 3.136.075.363.256.715.555.939 1.205.864 1.685-1.13 2.08-1.813.363-.608.832-1.141 1.397-1.547 1.173-.811 2.635-1.013 4.021-1.035 1.995-.032 4.448.341 6.251-.736 2.581-1.557 2.987-6.485 5.664-7.936 2.656-1.44 7.339.704 10.091-.64 2.709-1.323 3.691-6.229 6.485-7.456 2.773-1.195 7.147 1.387 10.005.288 2.859-1.099 4.373-5.952 7.243-6.912 2.891-.96 6.901 2.027 9.803 1.195 2.933-.843 4.981-5.579 7.915-6.293 2.965-.704 6.56 2.667 9.525 2.101 2.976-.576 5.536-5.141 8.512-5.589 2.997-.427 6.144 3.296 9.12 2.997 2.997-.299 6.059-4.661 9.035-4.821 2.997-.16 5.664 3.893 8.619 3.861 2.987-.011 6.507-4.107 9.461-3.989 2.965.117 5.099 4.437 8.021 4.693 2.93.251 8.231-.506 11.122-.111z" fill="#00cc7f"/><path d="m265.995 360.587c-.949 1.12-2.517 2.421-4.117 3.723-1.6 1.291-3.211 2.571-4.213 3.648-1.995 2.144-.693 6.795-2.816 8.864-2.112 2.059-7.467 1.387-9.696 3.36-2.219 1.973-1.483 6.763-3.819 8.651-2.315 1.867-7.509.683-9.931 2.464-2.411 1.781-2.261 6.656-4.768 8.331s-7.467-.011-10.069 1.557c-2.581 1.557-2.997 6.475-5.675 7.936-2.645 1.44-7.339-.704-10.08.64-2.709 1.323-3.691 6.229-6.485 7.445-2.773 1.205-7.147-1.376-10.005-.277-2.859 1.099-4.373 5.941-7.232 6.912-2.901.96-6.912-2.027-9.813-1.195-2.933.843-4.981 5.579-7.915 6.283-2.955.704-6.56-2.677-9.515-2.101-2.987.587-5.557 5.152-8.523 5.589-2.987.437-6.144-3.296-9.12-2.997-.459.053-1.003.192-1.568.405-1.835.661-1.493 3.264.416 3.563.117.011.224.043.331.064 2.443.597 4.64 4.085 7.093 4.789 2.453.683 5.355-1.365 7.808-.576 2.421.779 4.192 4.331 6.613 5.216 2.4.875 5.653-.875 8.064.096 2.357.96 3.701 4.544 6.069 5.6 2.368 1.045 5.92-.363 8.224.757 2.325 1.141 3.211 4.725 5.472 5.92 2.283 1.216 6.101.139 8.299 1.419 2.24 1.28 2.656 4.832 4.8 6.176 2.165 1.365 6.229.651 8.309 2.069 2.101 1.44 2.059 4.896 4.064 6.379 2.027 1.504 6.283 1.152 8.213 2.709 1.963 1.568 1.429 4.896 3.296 6.518 1.867 1.611 6.261 1.643 8.032 3.306 1.781 1.675.789 4.854 2.464 6.571 1.685 1.728 5.397 4.277 6.976 6.037-1.184 0-2.869-.256-4.555-.533-1.696-.267-3.392-.555-4.597-.608-2.4-.096-4.085 2.773-6.528 2.571-2.421-.203-5.387-3.445-7.851-3.744-2.443-.299-4.565 2.325-7.04 1.92-2.443-.395-5.035-3.787-7.509-4.288-2.443-.501-4.981 1.856-7.456 1.248-2.453-.586-4.64-4.096-7.104-4.779-2.443-.693-5.344 1.365-7.797.576-2.421-.789-4.181-4.341-6.613-5.227-2.411-.864-5.664.875-8.064-.085-2.368-.971-3.701-4.555-6.069-5.611s-5.931.363-8.224-.746c-2.336-1.142-3.221-4.726-5.461-5.931-2.283-1.216-6.112-.139-8.32-1.419-2.219-1.28-2.645-4.821-4.8-6.176-1.099-.704-2.72-.853-4.309-1.024-1.995-.224-3.84 1.259-3.872 3.253-.011.277.021.533.117.779.565 1.482 3.403 2.144 3.883 3.637.373 1.12-.587 2.645-.928 3.968-4.107-2.518-8.139-5.163-12.085-7.904-10.464-7.275-20.363-15.317-29.6-24.043l88.693-199.413 12.832-28.853c.779.341 1.344 1.163 1.184 2.187-.011.032-.021.053-.021.075-.405 2.496-.832 4.981-.917 6.763-.16 3.531 4 5.995 3.691 9.579-.309 3.573-5.067 7.957-5.525 11.584-.107.864.032 1.707.299 2.528.821 2.592 2.901 5.045 2.432 7.797-.597 3.605-5.547 7.445-6.293 11.083-.747 3.616 2.645 7.328 1.76 10.976-.885 3.595-5.995 6.859-7.029 10.485-1.024 3.595 1.952 7.861.779 11.467-1.152 3.573-6.357 6.197-7.659 9.781-1.291 3.541 1.227 8.309-.203 11.851-1.408 3.499-6.656 5.483-8.213 8.971-1.547 3.499.491 8.725-1.163 12.117-1.664 3.424-6.901 4.757-8.672 8.085-1.781 3.371-.245 8.981-2.123 12.235-1.899 3.285-7.061 3.936-9.045 7.115-2.005 3.189-.992 9.152-3.083 12.235-2.101 3.104-7.136 3.061-9.323 6.027-.715.971-1.099 2.123-1.355 3.307-.203.96-.576 2.155-.373 3.136.075.363.256.715.555.939 1.205.864 1.685-1.13 2.08-1.813.363-.608.832-1.141 1.397-1.547 1.173-.811 2.635-1.013 4.021-1.035 1.995-.032 4.448.341 6.251-.736 2.581-1.557 2.987-6.485 5.664-7.936 2.656-1.44 7.339.704 10.091-.64 2.709-1.323 3.691-6.229 6.485-7.456 2.773-1.195 7.147 1.387 10.005.288 2.859-1.099 4.373-5.952 7.243-6.912 2.891-.96 6.901 2.027 9.803 1.195 2.933-.843 4.981-5.579 7.915-6.293 2.965-.704 6.56 2.667 9.525 2.101 2.976-.576 5.536-5.141 8.512-5.589 2.997-.427 6.144 3.296 9.12 2.997 2.997-.299 6.059-4.661 9.035-4.821 2.997-.16 5.664 3.893 8.619 3.861 2.987-.011 6.507-4.107 9.461-3.989 2.965.117 5.099 4.437 8.021 4.693 2.931.252 8.232-.505 11.123-.11z" fill="#009191"/></g><g><path d="m359.286 117.341c-.5.503-1.331 1.114-2.168 1.713-.837.609-1.677 1.209-2.215 1.702-1.063.978-.562 2.917-1.687 3.871-1.117.951-3.764.83-4.936 1.749-1.17.913-.957 2.935-2.181 3.817-1.214.873-3.759.532-5.028 1.373-1.254.831-1.333 2.913-2.644 3.708-1.296.795-3.721.235-5.061.989-1.334.747-1.697 2.861-3.08 3.57-1.363.696-3.631-.068-5.041.594-1.393.655-2.039 2.782-3.472 3.395-1.424.6-3.52-.364-4.974.195-1.458.56-2.374 2.681-3.824 3.186-1.479.506-3.383-.641-4.852-.196-1.49.453-2.663 2.539-4.145 2.937-1.497.398-3.183-.928-4.678-.588-.771.172-1.525.796-2.278 1.401-.939.753-1.097 2.172-.263 3.037.118.122.242.218.386.282.871.387 2.362-.535 3.201-.107.853.428.99 2.178 1.805 2.644.832.474 2.403-.292 3.197.22.805.513.761 2.266 1.527 2.817.776.553 2.421-.046 3.16.545.745.594.518 2.33 1.227 2.956.712.635 2.408.208 3.084.871.673.669.273 2.377.909 3.074.639.706 2.374.455 2.977 1.189s.023 2.387.585 3.151 1.871 1.82 2.392 2.614c-.466.069-1.117.042-1.767.005-.654-.035-1.306-.077-1.776-.03-.945.091-1.779 1.63-2.732 1.676-.945.043-1.924-1.412-2.877-1.414-.944-.005-1.94 1.434-2.888 1.382-.949-.056-1.768-1.601-2.714-1.711-.943-.102-2.081 1.23-3.02 1.075-.934-.153-1.591-1.775-2.519-1.977-.925-.204-2.197 1.002-3.117.748-.913-.247-1.395-1.926-2.301-2.229-.898-.296-2.288.779-3.176.432-.88-.336-1.194-2.061-2.066-2.452-.871-.387-2.362.535-3.199.111-.85-.433-.99-2.178-1.811-2.646-.822-.473-2.403.292-3.195-.216-.8-.515-.757-2.267-1.523-2.819-.079-.056-.169-.103-.268-.136-.964-.356-1.922.586-1.668 1.583l4.22 16.791c.236.937.101 1.893-.316 2.699s-1.121 1.463-2.025 1.811c-1.808.695-3.847-.07-4.758-1.781l-8.111-15.296c-.479-.911-1.821-.969-2.298-.059-.051.091-.086.186-.107.28-.2.923 1.006 2.195.757 3.114-.249.908-1.935 1.398-2.229 2.301-.296.898.769 2.286.428 3.178-.338.876-2.063 1.189-2.45 2.06-.386.875.536 2.366.108 3.205-.428.853-2.179.986-2.648 1.807-.47.831.297 2.401-.216 3.196-.513.804-2.266.761-2.816 1.532-.554.772.044 2.417-.547 3.156-.594.744-2.33.518-2.962 1.225-.629.715-.202 2.411-.869 3.088-.669.673-2.372.271-3.07.907-.706.639-.459 2.376-1.189 2.977-.738.604-2.388.019-3.151.585-.38.28-.837.747-1.299 1.211-.458.463-.923.919-1.316 1.18-.146-.939.12-2.599.025-3.543s-1.632-1.783-1.676-2.731c-.044-.949 1.412-1.924 1.414-2.877.005-.944-1.436-1.944-1.384-2.892.058-.945 1.603-1.764 1.707-2.712.107-.94-1.224-2.078-1.069-3.017.153-.934 1.775-1.59 1.981-2.521.2-.923-1.006-2.195-.753-3.115.247-.913 1.926-1.395 2.227-2.305.293-.892-.777-2.283-.43-3.172.336-.88 2.061-1.194 2.448-2.065.064-.144.091-.298.097-.468.04-1.201-1.027-2.149-2.229-2.079-.964.055-1.942.096-2.63.485-1.338.748-1.702 2.863-3.08 3.569-1.367.698-3.635-.066-5.045.595-1.389.653-2.035 2.781-3.472 3.395-1.415.597-3.516-.365-4.974.195-1.454.559-2.366 2.678-3.825 3.186-1.475.505-3.379-.643-4.852-.196-1.49.453-2.663 2.539-4.141 2.935-1.501.4-3.187-.927-4.678-.588-1.501.338-2.926 2.377-4.421 2.655-1.506.287-2.959-1.206-4.447-.983-1.506.225-3.168 2.183-4.654 2.348-1.5.165-2.696-1.479-4.176-1.374-1.486.103-3.371 1.965-4.837 2.007-1.474.046-2.401-1.731-3.845-1.745-.729-.007-1.755.11-2.785.219-1.022.115-2.048.218-2.757.18 1.003-1.012 3.314-2.426 4.382-3.415 1.062-.982.56-2.921 1.686-3.875 1.119-.946 3.764-.83 4.938-1.745 1.169-.913.957-2.935 2.183-3.813 1.212-.877 3.758-.536 5.027-1.377 1.254-.831 1.333-2.913 2.642-3.712 1.298-.79 3.721-.235 5.063-.985 1.334-.747 1.696-2.866 3.08-3.569 1.361-.7 3.63.063 5.041-.594 1.395-.651 2.039-2.782 3.473-3.391 1.422-.604 3.517.355 4.971-.203 1.458-.56 2.375-2.677 3.828-3.178 1.477-.51 3.383.641 4.85.192 1.488-.457 2.661-2.543 4.145-2.937 1.497-.398 3.183.928 4.678.588 1.499-.342 2.927-2.373 4.419-2.66.063-.01.13-.021.201-.025 1.159-.12 1.44-1.677.361-2.133-.339-.147-.66-.248-.934-.291-1.778-.273-3.793 1.874-5.576 1.516-1.776-.355-3.179-3.182-4.955-3.623-1.76-.438-4.034 1.484-5.793.964-1.741-.512-2.828-3.427-4.569-4.025-1.719-.592-4.226 1.084-5.938.412-1.692-.669-2.453-3.633-4.137-4.382-1.688-.747-4.399.672-6.026-.142-1.649-.82-2.083-3.804-3.674-4.684-1.604-.89-4.497.255-6.047-.693-1.565-.962-1.661-3.937-3.165-4.951-1.517-1.023-4.554-.167-6.007-1.249-1.461-1.088-1.214-4.018-2.61-5.16-1.403-1.149-4.566-.597-5.902-1.796-1.343-1.205-.755-4.066-2.031-5.321-1.278-1.259-4.518-1.018-5.727-2.322-1.212-1.313-.287-4.069-1.419-5.422-.572-.679-1.499-1.499-2.419-2.326-.922-.831-1.828-1.659-2.362-2.363 1.749-.151 4.915.473 6.688.408 1.763-.066 3.186-2.597 4.972-2.576 1.777.02 3.769 2.591 5.564 2.695 1.782.109 3.512-2.244 5.311-2.055 1.784.189 3.488 2.905 5.282 3.182 1.783.271 3.793-1.874 5.584-1.52 1.772.356 3.17 3.185 4.946 3.626 1.763.432 4.033-1.488 5.795-.97 1.744.52 2.83 3.431 4.566 4.031 1.719.592 4.226-1.084 5.938-.413 1.696.668 2.457 3.632 4.141 4.38 1.684.749 4.396-.666 6.026.142 1.645.821 2.083 3.804 3.67 4.686 1.614.891 4.503-.253 6.053.696 1.563.958 1.66 3.933 3.159 4.949 1.052.71 2.539.559 3.742.642.833.053 1.707.224 2.382.749.334.259.596.593.794.971.22.422.447 1.636 1.199 1.155.182-.123.303-.332.358-.549.155-.581-.031-1.313-.123-1.899-.117-.715-.317-1.423-.717-2.029-1.22-1.855-4.249-1.986-5.421-3.917-1.158-1.917-.367-5.472-1.474-7.457-1.092-1.971-4.179-2.525-5.219-4.559-1.028-2.015.068-5.348-.9-7.429-.958-2.056-4.068-3.022-4.962-5.136-.89-2.092.498-5.174-.328-7.323-.826-2.15-3.919-3.505-4.659-5.654-.754-2.173.913-4.965.245-7.137-.676-2.193-3.721-3.935-4.307-6.119-.59-2.207 1.333-4.681.824-6.876-.507-2.215-3.478-4.334-3.901-6.529-.422-2.219 1.739-4.345 1.401-6.544-.335-2.214-3.198-4.676-3.447-6.866-.254-2.202 2.128-3.955 1.966-6.13-.164-2.194-2.89-4.981-2.963-7.138-.077-2.165 2.505-3.521 2.519-5.649.004-1.073-.176-2.586-.346-4.098-.001-.014-.005-.027-.008-.045-.068-.624.301-1.096.78-1.28s1.069-.081 1.436.428c.011.015.015.028.024.038.887 1.237 1.766 2.482 2.488 3.275 1.436 1.571 4.261.849 5.654 2.508 1.39 1.651 1.232 5.546 2.58 7.285 1.337 1.724 4.279 1.43 5.566 3.235 1.282 1.793.804 5.538 2.039 7.407 1.221 1.859 4.251 1.991 5.423 3.921 1.156 1.913.369 5.476 1.476 7.461 1.092 1.971 4.177 2.521 5.217 4.555 1.028 2.015-.068 5.348.899 7.429.959 2.06 4.067 3.018 4.962 5.136.89 2.092-.499 5.17.327 7.319.826 2.15 3.921 3.509 4.661 5.658.752 2.169-.911 4.969-.245 7.137.676 2.193 3.721 3.934 4.307 6.119.59 2.207-1.331 4.686-.822 6.881.507 2.215 3.475 4.326 3.899 6.525.422 2.219-1.739 4.345-1.403 6.54.109.718.434 1.378.826 1.987.325.497.677 1.165 1.181 1.492.186.124.416.199.633.168.881-.147.237-1.2.117-1.661-.106-.413-.135-.837-.061-1.253.15-.842.684-1.554 1.267-2.151.838-.867 2.043-1.751 2.349-2.983.433-1.759-1.488-4.033-.968-5.791.516-1.743 3.427-2.828 4.029-4.57.588-1.718-1.084-4.226-.412-5.938.669-1.692 3.631-2.457 4.38-4.141s-.671-4.395.141-6.026c.821-1.645 3.805-2.079 4.686-3.67.888-1.608-.256-4.497.691-6.051.962-1.565 3.933-1.66 4.953-3.161 1.023-1.517.167-4.554 1.244-6.006 1.092-1.462 4.022-1.216 5.164-2.611 1.147-1.407.593-4.565 1.792-5.9 1.209-1.345 4.07-.756 5.321-2.031 1.263-1.279 1.02-4.523 2.326-5.728 1.313-1.212 4.064-.285 5.418-1.418 1.36-1.139 3.293-3.723 4.693-4.783.075.88-.043 2.101-.171 3.336-.13 1.231-.269 2.461-.239 3.348.066 1.763 2.598 3.19 2.577 4.977-.024 1.778-2.592 3.769-2.697 5.56-.107 1.786 2.246 3.517 2.056 5.311-.189 1.784-2.908 3.494-3.18 5.286-.271 1.783 1.874 3.793 1.518 5.58-.355 1.776-3.184 3.174-3.625 4.95-.437 1.76 1.484 4.034.966 5.797-.516 1.743-3.431 2.829-4.026 4.564-.592 1.719 1.084 4.226.408 5.939-.664 1.694-3.627 2.455-4.38 4.141-.749 1.684.67 4.395-.138 6.025-.821 1.645-3.805 2.079-4.686 3.67-.892 1.61.253 4.503-.697 6.049-.958 1.563-3.933 1.66-4.947 3.164-1.023 1.517-.171 4.556-1.253 6.009-1.084 1.459-4.018 1.214-5.156 2.608-.175.216-.346.506-.499.842-.496 1.061.756 2.029 1.697 1.342.054-.045.112-.081.166-.116 1.3-.786 3.721-.235 5.063-.985 1.338-.749 1.702-2.863 3.08-3.57 1.366-.702 3.634.062 5.045-.595 1.39-.649 2.034-2.781 3.473-3.391 1.414-.601 3.513.357 4.971-.203 1.454-.559 2.367-2.674 3.828-3.178 1.473-.509 3.379.643 4.85.192 1.488-.457 2.661-2.543 4.141-2.935 1.499-.404 3.187.927 4.677.588 1.499-.342 2.926-2.377 4.419-2.659 1.507-.283 2.961 1.21 4.448.987 1.506-.225 3.168-2.183 4.655-2.344 1.498-.17 2.695 1.475 4.175 1.369 1.484-.107 3.371-1.965 4.835-2.011 1.474-.045 2.401 1.731 3.847 1.749 1.468.022 4.131-.476 5.553-.396z" fill="#00cc7f"/><path d="m359.286 117.341c-.5.503-1.331 1.114-2.168 1.713-.837.609-1.677 1.209-2.215 1.702-1.063.978-.562 2.917-1.687 3.871-1.117.951-3.764.83-4.936 1.749-1.17.913-.957 2.935-2.181 3.817-1.214.873-3.759.532-5.028 1.373-1.254.831-1.333 2.913-2.644 3.708-1.296.795-3.721.235-5.061.989-1.334.747-1.697 2.861-3.08 3.57-1.363.696-3.631-.068-5.041.594-1.393.655-2.039 2.782-3.472 3.395-1.424.6-3.52-.364-4.974.195-1.458.56-2.374 2.681-3.824 3.186-1.479.506-3.383-.641-4.852-.196-1.49.453-2.663 2.539-4.145 2.937-1.497.398-3.183-.928-4.678-.588-.771.172-1.525.796-2.278 1.401-.939.753-1.097 2.172-.263 3.037.118.122.242.218.386.282.871.387 2.362-.535 3.201-.107.853.428.99 2.178 1.805 2.644.832.474 2.403-.292 3.197.22.805.513.761 2.266 1.527 2.817.776.553 2.421-.046 3.16.545.745.594.518 2.33 1.227 2.956.712.635 2.408.208 3.084.871.673.669.273 2.377.909 3.074.639.706 2.374.455 2.977 1.189s.023 2.387.585 3.151 1.871 1.82 2.392 2.614c-.466.069-1.117.042-1.767.005-.654-.035-1.306-.077-1.776-.03-.945.091-1.779 1.63-2.732 1.676-.945.043-1.924-1.412-2.877-1.414-.944-.005-1.94 1.434-2.888 1.382-.949-.056-1.768-1.601-2.714-1.711-.943-.102-2.081 1.23-3.02 1.075-.934-.153-1.591-1.775-2.519-1.977-.925-.204-2.197 1.002-3.117.748-.913-.247-1.395-1.926-2.301-2.229-.898-.296-2.288.779-3.176.432-.88-.336-1.194-2.061-2.066-2.452-.871-.387-2.362.535-3.199.111-.85-.433-.99-2.178-1.811-2.646-.822-.473-2.403.292-3.195-.216-.8-.515-.757-2.267-1.523-2.819-.079-.056-.169-.103-.268-.136-.964-.356-1.922.586-1.668 1.583l4.22 16.791c.236.937.101 1.893-.316 2.699s-1.121 1.463-2.025 1.811l-64.19-167.019c.479-.184 1.069-.081 1.436.428.011.015.015.028.024.038.887 1.237 1.766 2.482 2.488 3.275 1.436 1.571 4.261.849 5.654 2.508 1.39 1.651 1.232 5.546 2.58 7.285 1.337 1.724 4.279 1.43 5.566 3.235 1.282 1.793.804 5.538 2.039 7.407 1.221 1.859 4.251 1.991 5.423 3.921 1.156 1.913.369 5.476 1.476 7.461 1.092 1.971 4.177 2.521 5.217 4.555 1.028 2.015-.068 5.348.899 7.429.959 2.06 4.067 3.018 4.962 5.136.89 2.092-.499 5.17.327 7.319.826 2.15 3.921 3.509 4.661 5.658.752 2.169-.911 4.969-.245 7.137.676 2.193 3.721 3.934 4.307 6.119.59 2.207-1.331 4.686-.822 6.881.507 2.215 3.475 4.326 3.899 6.525.422 2.219-1.739 4.345-1.403 6.54.109.718.434 1.378.826 1.987.325.497.677 1.165 1.181 1.492.186.124.416.199.633.168.881-.147.237-1.2.117-1.661-.106-.413-.135-.837-.061-1.253.15-.842.684-1.554 1.267-2.151.838-.867 2.043-1.751 2.349-2.983.433-1.759-1.488-4.033-.968-5.791.516-1.743 3.427-2.828 4.029-4.57.588-1.718-1.084-4.226-.412-5.938.669-1.692 3.631-2.457 4.38-4.141s-.671-4.395.141-6.026c.821-1.645 3.805-2.079 4.686-3.67.888-1.608-.256-4.497.691-6.051.962-1.565 3.933-1.66 4.953-3.161 1.023-1.517.167-4.554 1.244-6.006 1.092-1.462 4.022-1.216 5.164-2.611 1.147-1.407.593-4.565 1.792-5.9 1.209-1.345 4.07-.756 5.321-2.031 1.263-1.279 1.02-4.523 2.326-5.728 1.313-1.212 4.064-.285 5.418-1.418 1.36-1.139 3.293-3.723 4.693-4.783.075.88-.043 2.101-.171 3.336-.13 1.231-.269 2.461-.239 3.348.066 1.763 2.598 3.19 2.577 4.977-.024 1.778-2.592 3.769-2.697 5.56-.107 1.786 2.246 3.517 2.056 5.311-.189 1.784-2.908 3.494-3.18 5.286-.271 1.783 1.874 3.793 1.518 5.58-.355 1.776-3.184 3.174-3.625 4.95-.437 1.76 1.484 4.034.966 5.797-.516 1.743-3.431 2.829-4.026 4.564-.592 1.719 1.084 4.226.408 5.939-.664 1.694-3.627 2.455-4.38 4.141-.749 1.684.67 4.395-.138 6.025-.821 1.645-3.805 2.079-4.686 3.67-.892 1.61.253 4.503-.697 6.049-.958 1.563-3.933 1.66-4.947 3.164-1.023 1.517-.171 4.556-1.253 6.009-1.084 1.459-4.018 1.214-5.156 2.608-.175.216-.346.506-.499.842-.496 1.061.756 2.029 1.697 1.342.054-.045.112-.081.166-.116 1.3-.786 3.721-.235 5.063-.985 1.338-.749 1.702-2.863 3.08-3.57 1.366-.702 3.634.062 5.045-.595 1.39-.649 2.034-2.781 3.473-3.391 1.414-.601 3.513.357 4.971-.203 1.454-.559 2.367-2.674 3.828-3.178 1.473-.509 3.379.643 4.85.192 1.488-.457 2.661-2.543 4.141-2.935 1.499-.404 3.187.927 4.677.588 1.499-.342 2.926-2.377 4.419-2.659 1.507-.283 2.961 1.21 4.448.987 1.506-.225 3.168-2.183 4.655-2.344 1.498-.17 2.695 1.475 4.175 1.369 1.484-.107 3.371-1.965 4.835-2.011 1.474-.045 2.401 1.731 3.847 1.749 1.461.018 4.124-.48 5.546-.4z" fill="#009191"/></g><g><path d="m490.784 268.192c-.587 2.624 2.496 5.76 1.781 8.373-.704 2.603-5.152 4.491-5.984 7.093-.821 2.581 1.877 6.069.928 8.64-.96 2.549-5.483 3.947-6.571 6.485-1.067 2.507 1.248 6.336.053 8.832-1.184 2.464-5.771 3.381-7.061 5.813-1.291 2.411.597 6.528-.821 8.907-1.387 2.357-5.963 2.784-7.488 5.099-1.515 2.325-.053 6.688-1.643 8.917-1.611 2.24-6.144 2.176-7.829 4.32-1.707 2.176-.693 6.752-2.474 8.811-1.803 2.101-6.24 1.525-8.096 3.52-1.888 2.005-1.344 6.72-3.296 8.619-1.963 1.909-6.261.843-8.277 2.635-.309.277-.64.672-.939 1.131-.992 1.461.629 3.189 2.197 2.4.085-.053.181-.096.267-.128 2.122-.864 5.579.533 7.755-.256 2.165-.789 3.211-3.84 5.418-4.565 2.197-.714 5.376.96 7.627.32 2.218-.629 3.69-3.637 5.973-4.203 2.24-.555 5.12 1.365 7.424.885 2.293-.48 4.149-3.403 6.443-3.797 2.304-.405 4.853 1.76 7.147 1.44 2.325-.32 4.555-3.136 6.848-3.371.736-.075 1.461.117 2.187.405-4.917 11.787-10.688 23.115-17.248 33.931v.011c-2.037.789-3.765 3.253-5.835 3.616-2.314.405-4.864-1.76-7.157-1.451-2.315.32-4.555 3.136-6.848 3.371-2.315.235-4.501-2.133-6.806-1.984-1.184.064-2.453.811-3.712 1.536-1.579.885-2.144 2.955-1.12 4.437.149.213.309.384.512.512 1.195.789 3.627-.224 4.779.608 1.163.843.949 3.467 2.037 4.352 1.131.907 3.637.139 4.693 1.099 1.077.949.597 3.541 1.6 4.544.694.682 2.112.672 3.243.928-4.139 5.504-8.501 10.816-13.067 15.957-.565.64-1.141 1.28-1.717 1.909-.16-.138-.32-.245-.501-.32-1.333-.523-3.509.96-4.811.363-1.291-.587-1.611-3.189-2.88-3.851-1.259-.661-3.584.608-4.821-.117-1.227-.715-1.28-3.349-2.474-4.139-1.206-.779-3.638.235-4.779-.597-1.152-.853-.949-3.467-2.059-4.363-1.098-.896-3.626-.138-4.682-1.077-1.067-.96-.587-3.552-1.589-4.555-.107-.096-.224-.192-.363-.267-1.355-.757-2.997.416-2.859 1.952l2.251 25.931c.128 1.451-.299 2.837-1.109 3.925-.811 1.099-2.016 1.909-3.435 2.208-2.848.597-5.696-1.024-6.635-3.776l-8.395-24.64c-.491-1.472-2.464-1.877-3.392-.64-.096.128-.171.256-.224.394-.523 1.323.971 3.499.373 4.8-.587 1.291-3.2 1.611-3.851 2.88-.651 1.259.597 3.584-.128 4.821-.704 1.216-3.339 1.269-4.128 2.475-.779 1.205.235 3.637-.608 4.779-.832 1.163-3.467.939-4.352 2.048-.896 1.12-.139 3.637-1.088 4.693-.949 1.067-3.541.587-4.544 1.6s-.512 3.595-1.568 4.555-3.584.213-4.683 1.109c-1.109.907-.875 3.531-2.027 4.373-1.163.843-3.595-.16-4.779.619-1.195.779-1.248 3.413-2.475 4.128-1.237.726-3.552-.544-4.821.117-.629.32-1.419.906-2.208 1.493-.789.576-1.589 1.141-2.24 1.429.011-1.429.8-3.829.885-5.248.085-1.429-1.995-3.04-1.835-4.459s2.549-2.517 2.784-3.925-1.664-3.232-1.365-4.629c.309-1.387 2.805-2.229 3.179-3.616.384-1.365-1.312-3.371-.864-4.736.448-1.344 3.019-1.931 3.541-3.264.523-1.323-.96-3.499-.373-4.8s3.2-1.611 3.861-2.891c.651-1.259-.608-3.573.117-4.811.704-1.227 3.339-1.28 4.128-2.486.128-.192.203-.416.256-.661.341-1.781-1.013-3.435-2.816-3.627-1.44-.149-2.901-.32-4.011.096-2.165.789-3.211 3.84-5.429 4.565-2.197.704-5.376-.971-7.627-.32-2.219.629-3.68 3.637-5.963 4.203-2.24.555-5.13-1.376-7.435-.896-2.283.48-4.149 3.413-6.432 3.819-2.315.395-4.864-1.76-7.157-1.451-2.315.32-4.555 3.136-6.848 3.371-2.315.235-4.501-2.144-6.795-1.995-2.315.139-4.917 2.827-7.2 2.88-2.304.075-4.107-2.496-6.368-2.517-2.283-.021-5.216 2.485-7.467 2.379-2.261-.117-3.648-2.837-5.867-3.04-2.229-.203-5.472 2.112-7.659 1.824-2.197-.288-3.147-3.147-5.291-3.509-1.077-.181-2.635-.256-4.181-.341-1.547-.064-3.093-.16-4.139-.384 1.728-1.269 5.493-2.816 7.317-4.021 1.813-1.205 1.536-4.203 3.435-5.355 1.877-1.141 5.781-.331 7.744-1.408 1.952-1.077 2.112-4.128 4.149-5.141 2.005-1.014 5.707.107 7.787-.843 2.059-.928 2.677-4 4.811-4.875 2.112-.864 5.579.533 7.744-.256s3.2-3.851 5.429-4.565c2.187-.715 5.365.96 7.616.331 2.229-.64 3.691-3.648 5.963-4.203 2.261-.565 5.141 1.365 7.435.885 2.293-.491 4.16-3.413 6.432-3.808 2.315-.405 4.875 1.76 7.158 1.44 2.315-.32 4.555-3.136 6.859-3.371 2.315-.224 4.501 2.144 6.795 1.995 2.304-.149 4.917-2.827 7.2-2.891.096 0 .192 0 .299.011 1.749.096 2.539-2.144 1.045-3.083-.469-.299-.917-.523-1.312-.651-2.581-.832-6.08 1.877-8.64.917-2.549-.949-3.957-5.483-6.485-6.56-2.517-1.067-6.347 1.238-8.832.053-2.464-1.184-3.381-5.771-5.824-7.072-2.411-1.291-6.528.597-8.907-.8-2.347-1.397-2.773-5.984-5.088-7.499-2.336-1.504-6.699-.053-8.917-1.643-2.251-1.611-2.187-6.144-4.331-7.829-2.165-1.707-6.741-.693-8.811-2.475-2.091-1.803-1.525-6.24-3.52-8.107-2.005-1.877-6.72-1.333-8.619-3.286-1.899-1.962-.843-6.25-2.635-8.277-1.813-2.048-6.635-1.984-8.331-4.075-1.707-2.112-.149-6.219-1.739-8.384-1.6-2.176-6.464-2.592-7.947-4.821-1.493-2.229.544-6.101-.811-8.384-.693-1.141-1.867-2.581-3.04-4.032s-2.315-2.891-2.944-4.064c2.635.192 7.189 1.877 9.835 2.197 2.635.331 5.344-3.093 7.989-2.635 2.635.459 4.981 4.747 7.616 5.333 2.624.587 5.749-2.496 8.373-1.781 2.603.704 4.491 5.141 7.083 5.984 2.581.821 6.08-1.878 8.651-.928 2.549.96 3.947 5.483 6.475 6.571 2.517 1.056 6.336-1.248 8.832-.064 2.464 1.195 3.381 5.771 5.813 7.072 2.411 1.291 6.528-.597 8.906.811 2.368 1.397 2.784 5.973 5.109 7.488 2.315 1.515 6.677.064 8.907 1.653 2.24 1.611 2.186 6.144 4.331 7.829 2.176 1.707 6.741.704 8.811 2.475 2.091 1.792 1.525 6.24 3.509 8.107 1.397 1.301 3.638 1.429 5.397 1.845 1.227.277 2.485.736 3.36 1.675.437.469.747 1.024.949 1.632.224.683.267 2.539 1.504 2.005.299-.139.523-.427.661-.736.373-.821.267-1.952.267-2.848 0-1.088-.128-2.186-.576-3.179-1.365-3.051-5.835-3.968-7.115-7.104-1.259-3.125.768-8.213-.405-11.424-1.152-3.189-5.6-4.747-6.656-8.011-1.045-3.243 1.376-7.925.437-11.243-.928-3.275-5.312-5.451-6.133-8.811-.821-3.317 1.973-7.552 1.259-10.944-.715-3.392-4.982-6.133-5.568-9.504-.598-3.403 2.549-7.147 2.069-10.539-.48-3.413-4.576-6.72-4.928-10.101-.352-3.424 3.094-6.635 2.859-10.016-.117-1.888-1.365-3.904-2.475-5.909-.896-1.611-1.707-3.211-1.749-4.704-.096-3.403 3.616-6.037 3.637-9.387.032-3.36-3.627-7.701-3.477-11.008.149-3.328 4.107-5.365 4.384-8.629.288-3.296-3.093-8.085-2.688-11.296.405-3.232 4.555-4.629 5.088-7.787.256-1.589.352-3.883.459-6.165.011-.021 0-.043 0-.064.053-.949.715-1.557 1.461-1.717.757-.16 1.611.139 2.037.981.011.021.011.043.021.064 1.024 2.037 2.037 4.096 2.912 5.451 1.76 2.677 6.123 2.272 7.797 5.067 1.664 2.784.501 8.533 2.091 11.435 1.568 2.88 6.005 3.147 7.488 6.133 1.472 2.965-.139 8.405 1.248 11.477.715 1.579 2.251 2.581 3.744 3.627 1.387.971 2.752 1.963 3.371 3.488 1.259 3.115-.757 8.213.416 11.424 1.141 3.189 5.589 4.736 6.645 8.011 1.046 3.232-1.376 7.915-.437 11.232.939 3.285 5.323 5.451 6.144 8.811.821 3.317-1.973 7.552-1.269 10.944.715 3.381 4.981 6.144 5.568 9.504.597 3.403-2.539 7.157-2.069 10.539.48 3.413 4.587 6.73 4.939 10.112.341 3.413-3.093 6.634-2.869 10.016.224 3.402 4.128 7.243 4.235 10.613.096 3.392-3.627 6.027-3.648 9.365-.011 1.099.32 2.155.757 3.147.363.821.725 1.899 1.387 2.496.256.235.576.395.907.405 1.344-.011.64-1.728.565-2.443-.053-.64 0-1.27.214-1.867.427-1.216 1.386-2.144 2.389-2.891 1.451-1.088 3.456-2.112 4.203-3.872 1.067-2.507-1.248-6.336-.053-8.821 1.184-2.464 5.76-3.381 7.072-5.824 1.28-2.411-.597-6.528.8-8.907 1.397-2.357 5.984-2.784 7.499-5.098 1.504-2.326.053-6.688 1.643-8.917 1.611-2.24 6.144-2.176 7.829-4.331 1.707-2.165.693-6.731 2.475-8.811 1.803-2.091 6.229-1.525 8.107-3.509 1.877-2.005 1.333-6.72 3.275-8.618 1.973-1.909 6.261-.843 8.288-2.635 2.048-1.813 1.973-6.635 4.075-8.331 2.112-1.707 6.219-.15 8.384-1.75 2.176-1.589 2.592-6.464 4.821-7.946 2.229-1.483 6.091.555 8.373-.811 2.293-1.365 5.781-4.736 8.107-5.973-.096 1.323-.565 3.104-1.045 4.907-.491 1.803-.992 3.595-1.152 4.917-.331 2.635 3.093 5.355 2.635 8-.458 2.64-4.746 4.987-5.333 7.611z" fill="#00cc7f"/><path d="m490.784 268.192c-.587 2.624 2.496 5.76 1.781 8.373-.704 2.603-5.152 4.491-5.984 7.093-.821 2.581 1.877 6.069.928 8.64-.96 2.549-5.483 3.947-6.571 6.485-1.067 2.507 1.248 6.336.053 8.832-1.184 2.464-5.771 3.381-7.061 5.813-1.291 2.411.597 6.528-.821 8.907-1.387 2.357-5.963 2.784-7.488 5.099-1.515 2.325-.053 6.688-1.643 8.917-1.611 2.24-6.144 2.176-7.829 4.32-1.707 2.176-.693 6.752-2.474 8.811-1.803 2.101-6.24 1.525-8.096 3.52-1.888 2.005-1.344 6.72-3.296 8.619-1.963 1.909-6.261.843-8.277 2.635-.309.277-.64.672-.939 1.131-.992 1.461.629 3.189 2.197 2.4.085-.053.181-.096.267-.128 2.122-.864 5.579.533 7.755-.256 2.165-.789 3.211-3.84 5.418-4.565 2.197-.714 5.376.96 7.627.32 2.218-.629 3.69-3.637 5.973-4.203 2.24-.555 5.12 1.365 7.424.885 2.293-.48 4.149-3.403 6.443-3.797 2.304-.405 4.853 1.76 7.147 1.44 2.325-.32 4.555-3.136 6.848-3.371.736-.075 1.461.117 2.187.405-4.917 11.787-10.688 23.115-17.248 33.931-2.037.8-3.765 3.264-5.835 3.627-2.314.405-4.864-1.76-7.157-1.451-2.315.32-4.555 3.136-6.848 3.371-2.315.235-4.501-2.133-6.806-1.984-1.184.064-2.453.811-3.712 1.536-1.579.885-2.144 2.955-1.12 4.437.149.213.309.384.512.512 1.195.789 3.627-.224 4.779.608 1.163.843.949 3.467 2.037 4.352 1.131.907 3.637.139 4.693 1.099 1.077.949.597 3.541 1.6 4.544.694.682 2.112.672 3.243.928-4.139 5.504-8.501 10.816-13.067 15.957-.565.64-1.141 1.28-1.717 1.909-.16-.138-.32-.245-.501-.32-1.333-.523-3.509.96-4.811.363-1.291-.587-1.611-3.189-2.88-3.851-1.259-.661-3.584.608-4.821-.117-1.227-.715-1.28-3.349-2.474-4.139-1.206-.779-3.638.235-4.779-.597-1.152-.853-.949-3.467-2.059-4.363-1.098-.896-3.626-.138-4.682-1.077-1.067-.96-.587-3.552-1.589-4.555-.107-.096-.224-.192-.363-.267-1.355-.757-2.997.416-2.859 1.952l2.251 25.931c.128 1.451-.299 2.837-1.109 3.925-.811 1.099-2.016 1.909-3.435 2.208l-44.277-210.389-11.115-52.821c.757-.16 1.611.139 2.037.981.011.021.011.043.021.064 1.024 2.037 2.037 4.096 2.912 5.451 1.76 2.677 6.123 2.272 7.797 5.067 1.664 2.784.501 8.533 2.091 11.435 1.568 2.88 6.005 3.147 7.488 6.133 1.472 2.965-.139 8.405 1.248 11.477.715 1.579 2.251 2.581 3.744 3.627 1.387.971 2.752 1.963 3.371 3.488 1.259 3.115-.757 8.213.416 11.424 1.141 3.189 5.589 4.736 6.645 8.011 1.046 3.232-1.376 7.915-.437 11.232.939 3.285 5.323 5.451 6.144 8.811.821 3.317-1.973 7.552-1.269 10.944.715 3.381 4.981 6.144 5.568 9.504.597 3.403-2.539 7.157-2.069 10.539.48 3.413 4.587 6.73 4.939 10.112.341 3.413-3.093 6.634-2.869 10.016.224 3.402 4.128 7.243 4.235 10.613.096 3.392-3.627 6.027-3.648 9.365-.011 1.099.32 2.155.757 3.147.363.821.725 1.899 1.387 2.496.256.235.576.395.907.405 1.344-.011.64-1.728.565-2.443-.053-.64 0-1.27.214-1.867.427-1.216 1.386-2.144 2.389-2.891 1.451-1.088 3.456-2.112 4.203-3.872 1.067-2.507-1.248-6.336-.053-8.821 1.184-2.464 5.76-3.381 7.072-5.824 1.28-2.411-.597-6.528.8-8.907 1.397-2.357 5.984-2.784 7.499-5.098 1.504-2.326.053-6.688 1.643-8.917 1.611-2.24 6.144-2.176 7.829-4.331 1.707-2.165.693-6.731 2.475-8.811 1.803-2.091 6.229-1.525 8.107-3.509 1.877-2.005 1.333-6.72 3.275-8.618 1.973-1.909 6.261-.843 8.288-2.635 2.048-1.813 1.973-6.635 4.075-8.331 2.112-1.707 6.219-.15 8.384-1.75 2.176-1.589 2.592-6.464 4.821-7.946 2.229-1.483 6.091.555 8.373-.811 2.293-1.365 5.781-4.736 8.107-5.973-.096 1.323-.565 3.104-1.045 4.907-.491 1.803-.992 3.595-1.152 4.917-.331 2.635 3.093 5.355 2.635 8-.464 2.634-4.752 4.981-5.339 7.605z" fill="#009191"/></g></g></g></svg>